<svg width="60" height="60" viewBox="0 0 60 60" fill="none" xmlns="http://www.w3.org/2000/svg">
<path d="M42.6825 26.4474H17.2156C16.6936 26.4474 16.2606 26.0144 16.2606 25.4924C16.2606 24.9703 16.6936 24.5374 17.2156 24.5374H42.6825C43.2046 24.5374 43.6375 24.9703 43.6375 25.4924C43.6375 26.0144 43.2046 26.4474 42.6825 26.4474Z" fill="black"/>
<path d="M24.8557 36.6341H22.309C21.7869 36.6341 21.354 36.2012 21.354 35.6791C21.354 35.1571 21.7869 34.7241 22.309 34.7241H24.8557C25.3778 34.7241 25.8107 35.1571 25.8107 35.6791C25.8107 36.2012 25.3778 36.6341 24.8557 36.6341Z" fill="black"/>
<path d="M33.1324 36.6341H28.0391C27.517 36.6341 27.084 36.2012 27.084 35.6791C27.084 35.1571 27.517 34.7241 28.0391 34.7241H33.1324C33.6545 34.7241 34.0874 35.1571 34.0874 35.6791C34.0874 36.2012 33.6545 36.6341 33.1324 36.6341Z" fill="black"/>
<path d="M37.0289 41.7275H22.8693C17.8014 41.7275 16.2606 40.1995 16.2606 35.1825V24.7156C16.2606 19.6987 17.8014 18.1707 22.8693 18.1707H37.0161C42.084 18.1707 43.6248 19.6987 43.6248 24.7156V35.1698C43.6375 40.1995 42.0968 41.7275 37.0289 41.7275ZM22.8693 20.0807C18.871 20.0807 18.1706 20.7683 18.1706 24.7156V35.1698C18.1706 39.1172 18.871 39.8048 22.8693 39.8048H37.0161C41.0144 39.8048 41.7148 39.1172 41.7148 35.1698V24.7156C41.7148 20.7683 41.0144 20.0807 37.0161 20.0807H22.8693Z" fill="black"/>
<circle cx="30" cy="30" r="29.5" stroke="black"/>
</svg>
