<svg width="60" height="60" viewBox="0 0 60 60" fill="none" xmlns="http://www.w3.org/2000/svg">
<path d="M29.9511 43.4877C29.0979 43.4877 28.232 43.2967 27.557 42.9019L20.5532 38.8652C17.7007 36.9423 17.5224 36.6494 17.5224 33.6314V26.2709C17.5224 23.2529 17.6879 22.96 20.4895 21.0626L27.5443 16.9876C28.8814 16.2108 30.9826 16.2108 32.3197 16.9876L39.349 21.0371C42.2015 22.96 42.3798 23.2529 42.3798 26.2709V33.6186C42.3798 36.6367 42.2142 36.9296 39.4127 38.827L32.3579 42.9019C31.6702 43.2967 30.8043 43.4877 29.9511 43.4877ZM29.9511 18.3247C29.4162 18.3247 28.8941 18.4266 28.5248 18.6431L21.521 22.6926C19.4453 24.0934 19.4453 24.0934 19.4453 26.2709V33.6186C19.4453 35.7962 19.4453 35.7962 21.5719 37.2352L28.5248 41.2465C29.2762 41.6795 30.6387 41.6795 31.3901 41.2465L38.3939 37.197C40.4569 35.7962 40.4569 35.7962 40.4569 33.6186V26.2709C40.4569 24.0934 40.4569 24.0934 38.3303 22.6544L31.3773 18.6431C31.008 18.4266 30.4859 18.3247 29.9511 18.3247Z" fill="black"/>
<path d="M29.9511 34.7265C27.3151 34.7265 25.1757 32.5872 25.1757 29.9511C25.1757 27.3151 27.3151 25.1758 29.9511 25.1758C32.5871 25.1758 34.7265 27.3151 34.7265 29.9511C34.7265 32.5872 32.5871 34.7265 29.9511 34.7265ZM29.9511 27.0859C28.372 27.0859 27.0859 28.3721 27.0859 29.9511C27.0859 31.5302 28.372 32.8164 29.9511 32.8164C31.5301 32.8164 32.8163 31.5302 32.8163 29.9511C32.8163 28.3721 31.5301 27.0859 29.9511 27.0859Z" fill="black"/>
<circle cx="30" cy="30" r="29.5" stroke="black"/>
</svg>
