<svg width="60" height="60" viewBox="0 0 60 60" fill="none" xmlns="http://www.w3.org/2000/svg">
<path d="M33.7281 40C33.4281 40 33.1681 39.89 32.9481 39.67C32.7281 39.45 32.6181 39.17 32.6181 38.83V34.39H21.8781C21.5581 34.39 21.2881 34.29 21.0681 34.09C20.8681 33.87 20.7481 33.62 20.7081 33.34C20.6881 33.06 20.7681 32.8 20.9481 32.56L32.8281 17.02C32.9281 16.88 33.0481 16.77 33.1881 16.69C33.3481 16.59 33.5481 16.54 33.7881 16.54C34.1081 16.54 34.3681 16.66 34.5681 16.9C34.7881 17.12 34.8981 17.4 34.8981 17.74V32.29H37.2681C37.5881 32.29 37.8581 32.37 38.0781 32.53C38.2981 32.69 38.4081 32.97 38.4081 33.37C38.4081 33.63 38.2981 33.87 38.0781 34.09C37.8581 34.29 37.5881 34.39 37.2681 34.39H34.8981V38.83C34.8981 39.17 34.7881 39.45 34.5681 39.67C34.3481 39.89 34.0681 40 33.7281 40ZM23.1381 33.19L22.7181 32.29H32.6181V19.42L33.2181 20.05L23.1381 33.19Z" fill="black"/>
<circle cx="30" cy="30" r="29.5" stroke="black"/>
</svg>
