<svg width="210" height="210" viewBox="0 0 210 210" fill="none" xmlns="http://www.w3.org/2000/svg">
<circle cx="105" cy="105" r="105" fill="white"/>
<path d="M36.4389 36.4389C34.8612 34.8612 34.8559 32.2966 36.4954 30.7833C50.5397 17.8196 67.9982 9.08715 86.8543 5.64341C107.037 1.95736 127.864 4.50535 146.563 12.9483C165.262 21.3912 180.946 35.3286 191.528 52.9056C202.111 70.4826 207.089 90.8656 205.801 111.342C204.512 131.818 197.019 151.416 184.317 167.528C171.615 183.641 154.308 195.502 134.698 201.535C115.088 207.568 94.1064 207.485 74.5447 201.299C56.2689 195.519 40.0425 184.667 27.7338 170.046C26.2968 168.339 26.6236 165.795 28.3866 164.427C30.1496 163.06 32.6809 163.387 34.1237 165.089C45.4222 178.416 60.2705 188.31 76.9811 193.595C94.9779 199.287 114.281 199.362 132.322 193.812C150.363 188.262 166.286 177.349 177.972 162.526C189.657 147.703 196.551 129.673 197.737 110.834C198.922 91.9964 194.342 73.244 184.606 57.0732C174.871 40.9023 160.441 28.0799 143.238 20.3124C126.035 12.5449 106.874 10.2008 88.3059 13.5919C71.0647 16.7408 55.0935 24.6958 42.2137 36.5017C40.5689 38.0094 38.0166 38.0167 36.4389 36.4389Z" fill="url(#paint0_angular_463_16806)"/>
<path d="M64.9977 116C64.4644 116 63.9977 115.817 63.5977 115.45C63.2311 115.083 63.0477 114.617 63.0477 114.05C63.0477 113.883 63.0811 113.7 63.1477 113.5C63.2144 113.3 63.3144 113.067 63.4477 112.8L78.3477 80.8H61.1477C60.5811 80.8 60.0977 80.6166 59.6977 80.25C59.3311 79.85 59.1477 79.3833 59.1477 78.85C59.1477 78.3166 59.3311 77.8666 59.6977 77.5C60.0977 77.1 60.5811 76.9 61.1477 76.9H81.4977C82.0311 76.9 82.4811 77.1 82.8477 77.5C83.2144 77.8666 83.3977 78.3166 83.3977 78.85C83.3977 79.0166 83.3644 79.2 83.2977 79.4C83.2311 79.5666 83.1644 79.7333 83.0977 79.9L66.7477 114.9C66.3811 115.633 65.7977 116 64.9977 116ZM90.6657 116C90.1324 116 89.6657 115.817 89.2657 115.45C88.899 115.083 88.7157 114.617 88.7157 114.05C88.7157 113.883 88.749 113.7 88.8157 113.5C88.8824 113.3 88.9824 113.067 89.1157 112.8L104.016 80.8H86.8157C86.249 80.8 85.7657 80.6166 85.3657 80.25C84.999 79.85 84.8157 79.3833 84.8157 78.85C84.8157 78.3166 84.999 77.8666 85.3657 77.5C85.7657 77.1 86.249 76.9 86.8157 76.9H107.166C107.699 76.9 108.149 77.1 108.516 77.5C108.882 77.8666 109.066 78.3166 109.066 78.85C109.066 79.0166 109.032 79.2 108.966 79.4C108.899 79.5666 108.832 79.7333 108.766 79.9L92.4157 114.9C92.049 115.633 91.4657 116 90.6657 116ZM116.134 116C115.6 116 115.15 115.817 114.784 115.45C114.417 115.083 114.234 114.617 114.234 114.05C114.234 113.55 114.384 113.117 114.684 112.75L142.134 77.7C142.367 77.4666 142.6 77.2833 142.834 77.15C143.1 76.9833 143.384 76.9 143.684 76.9C144.25 76.9 144.717 77.1 145.084 77.5C145.45 77.8666 145.634 78.3333 145.634 78.9C145.634 79.3333 145.517 79.7166 145.284 80.05L117.634 115.35C117.2 115.783 116.7 116 116.134 116ZM119.784 96.45C117.984 96.45 116.334 96.0166 114.834 95.15C113.367 94.25 112.184 93.0666 111.284 91.6C110.417 90.1 109.984 88.4666 109.984 86.7C109.984 84.9333 110.417 83.3166 111.284 81.85C112.184 80.35 113.367 79.15 114.834 78.25C116.334 77.35 117.984 76.9 119.784 76.9C121.55 76.9 123.167 77.35 124.634 78.25C126.134 79.15 127.317 80.35 128.184 81.85C129.084 83.3166 129.534 84.9333 129.534 86.7C129.534 88.4666 129.084 90.1 128.184 91.6C127.317 93.0666 126.134 94.25 124.634 95.15C123.167 96.0166 121.55 96.45 119.784 96.45ZM119.784 92.65C120.85 92.65 121.834 92.3833 122.734 91.85C123.634 91.2833 124.35 90.55 124.884 89.65C125.45 88.75 125.734 87.7666 125.734 86.7C125.734 85.6 125.45 84.6 124.884 83.7C124.35 82.8 123.617 82.0833 122.684 81.55C121.784 80.9833 120.817 80.7 119.784 80.7C118.717 80.7 117.717 80.9833 116.784 81.55C115.884 82.0833 115.15 82.8 114.584 83.7C114.05 84.6 113.784 85.6 113.784 86.7C113.784 87.7666 114.05 88.75 114.584 89.65C115.15 90.55 115.884 91.2833 116.784 91.85C117.684 92.3833 118.684 92.65 119.784 92.65ZM140.034 116C138.267 116 136.634 115.567 135.134 114.7C133.667 113.8 132.484 112.617 131.584 111.15C130.717 109.683 130.284 108.05 130.284 106.25C130.284 104.483 130.717 102.867 131.584 101.4C132.484 99.9 133.667 98.7166 135.134 97.85C136.6 96.95 138.234 96.5 140.034 96.5C141.834 96.5 143.467 96.9333 144.934 97.8C146.434 98.6666 147.617 99.85 148.484 101.35C149.384 102.817 149.834 104.45 149.834 106.25C149.834 108.05 149.384 109.683 148.484 111.15C147.617 112.617 146.434 113.8 144.934 114.7C143.467 115.567 141.834 116 140.034 116ZM140.034 112.2C141.134 112.2 142.134 111.933 143.034 111.4C143.934 110.833 144.65 110.1 145.184 109.2C145.75 108.3 146.034 107.317 146.034 106.25C146.034 105.183 145.75 104.2 145.184 103.3C144.65 102.4 143.917 101.683 142.984 101.15C142.084 100.583 141.1 100.3 140.034 100.3C138.967 100.3 137.967 100.567 137.034 101.1C136.134 101.633 135.417 102.367 134.884 103.3C134.35 104.2 134.084 105.183 134.084 106.25C134.084 107.35 134.35 108.35 134.884 109.25C135.417 110.15 136.134 110.867 137.034 111.4C137.967 111.933 138.967 112.2 140.034 112.2ZM30.9469 135.786C30.6015 135.786 30.2702 135.73 29.9529 135.618C29.6449 135.506 29.3789 135.338 29.1549 135.114L29.6169 134.372C29.8035 134.549 30.0042 134.685 30.2189 134.778C30.4429 134.881 30.6902 134.932 30.9609 134.932C31.2875 134.932 31.5675 134.839 31.8009 134.652C32.0435 134.475 32.2722 134.157 32.4869 133.7L32.9629 132.622L33.0749 132.468L36.0989 125.65H37.0789L33.3969 133.882C33.1915 134.358 32.9629 134.736 32.7109 135.016C32.4682 135.296 32.2022 135.492 31.9129 135.604C31.6235 135.725 31.3015 135.786 30.9469 135.786ZM32.9069 133.21L29.5189 125.65H30.5549L33.5509 132.398L32.9069 133.21ZM40.7324 133.07C40.0044 133.07 39.3511 132.911 38.7724 132.594C38.2031 132.267 37.7551 131.824 37.4284 131.264C37.1018 130.695 36.9384 130.046 36.9384 129.318C36.9384 128.581 37.1018 127.932 37.4284 127.372C37.7551 126.812 38.2031 126.373 38.7724 126.056C39.3511 125.739 40.0044 125.58 40.7324 125.58C41.3578 125.58 41.9224 125.701 42.4264 125.944C42.9304 126.187 43.3271 126.551 43.6164 127.036L42.8744 127.54C42.6224 127.167 42.3098 126.891 41.9364 126.714C41.5631 126.537 41.1571 126.448 40.7184 126.448C40.1958 126.448 39.7244 126.569 39.3044 126.812C38.8844 127.045 38.5531 127.377 38.3104 127.806C38.0678 128.235 37.9464 128.739 37.9464 129.318C37.9464 129.897 38.0678 130.401 38.3104 130.83C38.5531 131.259 38.8844 131.595 39.3044 131.838C39.7244 132.071 40.1958 132.188 40.7184 132.188C41.1571 132.188 41.5631 132.099 41.9364 131.922C42.3098 131.745 42.6224 131.474 42.8744 131.11L43.6164 131.614C43.3271 132.09 42.9304 132.454 42.4264 132.706C41.9224 132.949 41.3578 133.07 40.7324 133.07ZM46.0344 133V126.252L46.2864 126.518H43.2484V125.65H49.8144V126.518H46.7764L47.0284 126.252V133H46.0344ZM54.2756 133.07C53.6409 133.07 53.0669 132.925 52.5536 132.636C52.0402 132.337 51.6296 131.913 51.3216 131.362C51.0229 130.802 50.8736 130.121 50.8736 129.318C50.8736 128.515 51.0229 127.839 51.3216 127.288C51.6202 126.728 52.0262 126.303 52.5396 126.014C53.0529 125.725 53.6316 125.58 54.2756 125.58C54.9756 125.58 55.6009 125.739 56.1516 126.056C56.7116 126.364 57.1502 126.803 57.4676 127.372C57.7849 127.932 57.9436 128.581 57.9436 129.318C57.9436 130.065 57.7849 130.718 57.4676 131.278C57.1502 131.838 56.7116 132.277 56.1516 132.594C55.6009 132.911 54.9756 133.07 54.2756 133.07ZM50.4816 135.716V125.65H51.4336V127.862L51.3356 129.332L51.4756 130.816V135.716H50.4816ZM54.2056 132.188C54.7282 132.188 55.1949 132.071 55.6056 131.838C56.0162 131.595 56.3429 131.259 56.5856 130.83C56.8282 130.391 56.9496 129.887 56.9496 129.318C56.9496 128.749 56.8282 128.249 56.5856 127.82C56.3429 127.391 56.0162 127.055 55.6056 126.812C55.1949 126.569 54.7282 126.448 54.2056 126.448C53.6829 126.448 53.2116 126.569 52.7916 126.812C52.3809 127.055 52.0542 127.391 51.8116 127.82C51.5782 128.249 51.4616 128.749 51.4616 129.318C51.4616 129.887 51.5782 130.391 51.8116 130.83C52.0542 131.259 52.3809 131.595 52.7916 131.838C53.2116 132.071 53.6829 132.188 54.2056 132.188ZM62.3332 133.07C61.6239 133.07 60.9846 132.911 60.4152 132.594C59.8552 132.267 59.4119 131.824 59.0852 131.264C58.7586 130.695 58.5952 130.046 58.5952 129.318C58.5952 128.581 58.7586 127.932 59.0852 127.372C59.4119 126.812 59.8552 126.373 60.4152 126.056C60.9752 125.739 61.6146 125.58 62.3332 125.58C63.0612 125.58 63.7052 125.739 64.2652 126.056C64.8346 126.373 65.2779 126.812 65.5952 127.372C65.9219 127.932 66.0852 128.581 66.0852 129.318C66.0852 130.046 65.9219 130.695 65.5952 131.264C65.2779 131.824 64.8346 132.267 64.2652 132.594C63.6959 132.911 63.0519 133.07 62.3332 133.07ZM62.3332 132.188C62.8652 132.188 63.3366 132.071 63.7472 131.838C64.1579 131.595 64.4799 131.259 64.7132 130.83C64.9559 130.391 65.0772 129.887 65.0772 129.318C65.0772 128.739 64.9559 128.235 64.7132 127.806C64.4799 127.377 64.1579 127.045 63.7472 126.812C63.3366 126.569 62.8699 126.448 62.3472 126.448C61.8246 126.448 61.3579 126.569 60.9472 126.812C60.5366 127.045 60.2099 127.377 59.9672 127.806C59.7246 128.235 59.6032 128.739 59.6032 129.318C59.6032 129.887 59.7246 130.391 59.9672 130.83C60.2099 131.259 60.5366 131.595 60.9472 131.838C61.3579 132.071 61.8199 132.188 62.3332 132.188ZM67.4396 133V125.65H68.4336V131.488L73.3476 125.65H74.2296V133H73.2356V127.148L68.3356 133H67.4396ZM70.7716 124.586C70.1556 124.586 69.6563 124.432 69.2736 124.124C68.9003 123.807 68.7043 123.354 68.6856 122.766H69.3996C69.4089 123.139 69.5396 123.433 69.7916 123.648C70.0436 123.863 70.3703 123.97 70.7716 123.97C71.1729 123.97 71.4996 123.863 71.7516 123.648C72.0129 123.433 72.1483 123.139 72.1576 122.766H72.8716C72.8623 123.354 72.6663 123.807 72.2836 124.124C71.9009 124.432 71.3969 124.586 70.7716 124.586ZM79.3883 133.07C78.6603 133.07 78.007 132.911 77.4283 132.594C76.859 132.267 76.411 131.824 76.0843 131.264C75.7576 130.695 75.5943 130.046 75.5943 129.318C75.5943 128.581 75.7576 127.932 76.0843 127.372C76.411 126.812 76.859 126.373 77.4283 126.056C78.007 125.739 78.6603 125.58 79.3883 125.58C80.0136 125.58 80.5783 125.701 81.0823 125.944C81.5863 126.187 81.983 126.551 82.2723 127.036L81.5303 127.54C81.2783 127.167 80.9656 126.891 80.5923 126.714C80.219 126.537 79.813 126.448 79.3743 126.448C78.8516 126.448 78.3803 126.569 77.9603 126.812C77.5403 127.045 77.209 127.377 76.9663 127.806C76.7236 128.235 76.6023 128.739 76.6023 129.318C76.6023 129.897 76.7236 130.401 76.9663 130.83C77.209 131.259 77.5403 131.595 77.9603 131.838C78.3803 132.071 78.8516 132.188 79.3743 132.188C79.813 132.188 80.219 132.099 80.5923 131.922C80.9656 131.745 81.2783 131.474 81.5303 131.11L82.2723 131.614C81.983 132.09 81.5863 132.454 81.0823 132.706C80.5783 132.949 80.0136 133.07 79.3883 133.07ZM84.6902 133V126.252L84.9422 126.518H81.9042V125.65H88.4702V126.518H85.4322L85.6842 126.252V133H84.6902ZM89.1374 133V125.65H92.3854C93.2161 125.65 93.8694 125.809 94.3454 126.126C94.8308 126.443 95.0734 126.91 95.0734 127.526C95.0734 128.123 94.8448 128.585 94.3874 128.912C93.9301 129.229 93.3281 129.388 92.5814 129.388L92.7774 129.094C93.6548 129.094 94.2988 129.257 94.7094 129.584C95.1201 129.911 95.3254 130.382 95.3254 130.998C95.3254 131.633 95.0921 132.127 94.6254 132.482C94.1681 132.827 93.4541 133 92.4834 133H89.1374ZM90.1034 132.216H92.4414C93.0668 132.216 93.5381 132.118 93.8554 131.922C94.1821 131.717 94.3454 131.39 94.3454 130.942C94.3454 130.494 94.2008 130.167 93.9114 129.962C93.6221 129.757 93.1648 129.654 92.5394 129.654H90.1034V132.216ZM90.1034 128.912H92.3154C92.8848 128.912 93.3188 128.805 93.6174 128.59C93.9254 128.375 94.0794 128.063 94.0794 127.652C94.0794 127.241 93.9254 126.933 93.6174 126.728C93.3188 126.523 92.8848 126.42 92.3154 126.42H90.1034V128.912ZM99.909 133.07C99.1997 133.07 98.5603 132.911 97.991 132.594C97.431 132.267 96.9877 131.824 96.661 131.264C96.3343 130.695 96.171 130.046 96.171 129.318C96.171 128.581 96.3343 127.932 96.661 127.372C96.9877 126.812 97.431 126.373 97.991 126.056C98.551 125.739 99.1903 125.58 99.909 125.58C100.637 125.58 101.281 125.739 101.841 126.056C102.41 126.373 102.854 126.812 103.171 127.372C103.498 127.932 103.661 128.581 103.661 129.318C103.661 130.046 103.498 130.695 103.171 131.264C102.854 131.824 102.41 132.267 101.841 132.594C101.272 132.911 100.628 133.07 99.909 133.07ZM99.909 132.188C100.441 132.188 100.912 132.071 101.323 131.838C101.734 131.595 102.056 131.259 102.289 130.83C102.532 130.391 102.653 129.887 102.653 129.318C102.653 128.739 102.532 128.235 102.289 127.806C102.056 127.377 101.734 127.045 101.323 126.812C100.912 126.569 100.446 126.448 99.923 126.448C99.4003 126.448 98.9337 126.569 98.523 126.812C98.1123 127.045 97.7857 127.377 97.543 127.806C97.3003 128.235 97.179 128.739 97.179 129.318C97.179 129.887 97.3003 130.391 97.543 130.83C97.7857 131.259 98.1123 131.595 98.523 131.838C98.9337 132.071 99.3957 132.188 99.909 132.188ZM109.883 133.084C109.351 133.084 108.824 133.009 108.301 132.86C107.779 132.711 107.317 132.482 106.915 132.174L107.237 131.432C107.592 131.693 108.003 131.894 108.469 132.034C108.936 132.165 109.398 132.23 109.855 132.23C110.313 132.221 110.709 132.155 111.045 132.034C111.381 131.913 111.643 131.745 111.829 131.53C112.016 131.315 112.109 131.073 112.109 130.802C112.109 130.41 111.932 130.107 111.577 129.892C111.223 129.668 110.737 129.556 110.121 129.556H108.861V128.828H110.051C110.415 128.828 110.737 128.781 111.017 128.688C111.297 128.595 111.512 128.459 111.661 128.282C111.82 128.105 111.899 127.895 111.899 127.652C111.899 127.391 111.806 127.167 111.619 126.98C111.442 126.793 111.195 126.653 110.877 126.56C110.56 126.467 110.201 126.42 109.799 126.42C109.435 126.429 109.057 126.485 108.665 126.588C108.273 126.681 107.886 126.826 107.503 127.022L107.223 126.252C107.653 126.028 108.077 125.86 108.497 125.748C108.927 125.627 109.356 125.566 109.785 125.566C110.373 125.547 110.901 125.617 111.367 125.776C111.843 125.935 112.221 126.163 112.501 126.462C112.781 126.751 112.921 127.101 112.921 127.512C112.921 127.876 112.809 128.193 112.585 128.464C112.361 128.735 112.063 128.945 111.689 129.094C111.316 129.243 110.891 129.318 110.415 129.318L110.457 129.052C111.297 129.052 111.951 129.215 112.417 129.542C112.893 129.869 113.131 130.312 113.131 130.872C113.131 131.311 112.987 131.698 112.697 132.034C112.408 132.361 112.016 132.617 111.521 132.804C111.036 132.991 110.49 133.084 109.883 133.084ZM119.182 133V131.376L119.14 131.11V128.394C119.14 127.769 118.963 127.288 118.608 126.952C118.263 126.616 117.745 126.448 117.054 126.448C116.578 126.448 116.125 126.527 115.696 126.686C115.267 126.845 114.903 127.055 114.604 127.316L114.156 126.574C114.529 126.257 114.977 126.014 115.5 125.846C116.023 125.669 116.573 125.58 117.152 125.58C118.104 125.58 118.837 125.818 119.35 126.294C119.873 126.761 120.134 127.475 120.134 128.436V133H119.182ZM116.648 133.07C116.097 133.07 115.617 132.981 115.206 132.804C114.805 132.617 114.497 132.365 114.282 132.048C114.067 131.721 113.96 131.348 113.96 130.928C113.96 130.545 114.049 130.2 114.226 129.892C114.413 129.575 114.711 129.323 115.122 129.136C115.542 128.94 116.102 128.842 116.802 128.842H119.336V129.584H116.83C116.121 129.584 115.626 129.71 115.346 129.962C115.075 130.214 114.94 130.527 114.94 130.9C114.94 131.32 115.103 131.656 115.43 131.908C115.757 132.16 116.214 132.286 116.802 132.286C117.362 132.286 117.843 132.16 118.244 131.908C118.655 131.647 118.953 131.273 119.14 130.788L119.364 131.474C119.177 131.959 118.851 132.347 118.384 132.636C117.927 132.925 117.348 133.07 116.648 133.07ZM126.84 132.132L126.616 132.398V125.65H127.61V132.398L127.344 132.132H131.446L131.18 132.398V125.65H132.174V133H122.01V125.65H123.004V132.398L122.752 132.132H126.84ZM132.37 134.61V132.734L132.622 133H131.124V132.132H133.308V134.61H132.37ZM134.228 133V125.65H135.222V131.488L140.136 125.65H141.018V133H140.024V127.148L135.124 133H134.228ZM147.927 132.132L147.703 132.398V125.65H148.697V132.398L148.431 132.132H152.533L152.267 132.398V125.65H153.261V133H143.097V125.65H144.091V132.398L143.839 132.132H147.927ZM153.457 134.61V132.734L153.709 133H152.211V132.132H154.395V134.61H153.457ZM158.465 133.07C157.7 133.07 157.028 132.911 156.449 132.594C155.871 132.267 155.418 131.824 155.091 131.264C154.765 130.695 154.601 130.046 154.601 129.318C154.601 128.59 154.755 127.946 155.063 127.386C155.381 126.826 155.81 126.387 156.351 126.07C156.902 125.743 157.518 125.58 158.199 125.58C158.89 125.58 159.501 125.739 160.033 126.056C160.575 126.364 160.999 126.803 161.307 127.372C161.615 127.932 161.769 128.581 161.769 129.318C161.769 129.365 161.765 129.416 161.755 129.472C161.755 129.519 161.755 129.57 161.755 129.626H155.357V128.884H161.223L160.831 129.178C160.831 128.646 160.715 128.175 160.481 127.764C160.257 127.344 159.949 127.017 159.557 126.784C159.165 126.551 158.713 126.434 158.199 126.434C157.695 126.434 157.243 126.551 156.841 126.784C156.44 127.017 156.127 127.344 155.903 127.764C155.679 128.184 155.567 128.665 155.567 129.206V129.36C155.567 129.92 155.689 130.415 155.931 130.844C156.183 131.264 156.529 131.595 156.967 131.838C157.415 132.071 157.924 132.188 158.493 132.188C158.941 132.188 159.357 132.109 159.739 131.95C160.131 131.791 160.467 131.549 160.747 131.222L161.307 131.866C160.981 132.258 160.57 132.557 160.075 132.762C159.59 132.967 159.053 133.07 158.465 133.07ZM163.2 133V125.65H164.194V128.898H168.828V125.65H169.822V133H168.828V129.752H164.194V133H163.2ZM174.901 133.07C174.192 133.07 173.552 132.911 172.983 132.594C172.423 132.267 171.98 131.824 171.653 131.264C171.326 130.695 171.163 130.046 171.163 129.318C171.163 128.581 171.326 127.932 171.653 127.372C171.98 126.812 172.423 126.373 172.983 126.056C173.543 125.739 174.182 125.58 174.901 125.58C175.629 125.58 176.273 125.739 176.833 126.056C177.402 126.373 177.846 126.812 178.163 127.372C178.49 127.932 178.653 128.581 178.653 129.318C178.653 130.046 178.49 130.695 178.163 131.264C177.846 131.824 177.402 132.267 176.833 132.594C176.264 132.911 175.62 133.07 174.901 133.07ZM174.901 132.188C175.433 132.188 175.904 132.071 176.315 131.838C176.726 131.595 177.048 131.259 177.281 130.83C177.524 130.391 177.645 129.887 177.645 129.318C177.645 128.739 177.524 128.235 177.281 127.806C177.048 127.377 176.726 127.045 176.315 126.812C175.904 126.569 175.438 126.448 174.915 126.448C174.392 126.448 173.926 126.569 173.515 126.812C173.104 127.045 172.778 127.377 172.535 127.806C172.292 128.235 172.171 128.739 172.171 129.318C172.171 129.887 172.292 130.391 172.535 130.83C172.778 131.259 173.104 131.595 173.515 131.838C173.926 132.071 174.388 132.188 174.901 132.188Z" fill="#40D1F5"/>
<defs>
<radialGradient id="paint0_angular_463_16806" cx="0" cy="0" r="1" gradientUnits="userSpaceOnUse" gradientTransform="translate(105 105) rotate(-134.667) scale(102.367)">
<stop stop-color="#40D1F5"/>
<stop offset="1" stop-color="#40D1F5" stop-opacity="0.22"/>
</radialGradient>
</defs>
</svg>
