<svg width="60" height="60" viewBox="0 0 60 60" fill="none" xmlns="http://www.w3.org/2000/svg">
<path d="M40.7257 47.6526C40.1889 47.6526 39.6521 47.5141 39.1672 47.2197L32.2229 43.0981C31.4955 43.0808 30.7682 43.0289 30.0755 42.925C29.6079 42.8557 29.2096 42.5439 29.0364 42.0937C28.8633 41.6434 28.9499 41.1585 29.2616 40.7949C30.4045 39.4614 30.9933 37.8682 30.9933 36.1711C30.9933 31.9803 27.3047 28.5687 22.7675 28.5687C21.0704 28.5687 19.4425 29.0364 18.0745 29.9369C17.6935 30.1793 17.2259 30.2139 16.8103 30.0234C16.412 29.8329 16.1176 29.4519 16.0657 29.0017C16.0137 28.5168 15.9791 28.0319 15.9791 27.5297C15.9791 18.9402 23.4256 11.9613 32.5692 11.9613C41.7129 11.9613 49.1594 18.9402 49.1594 27.5297C49.1594 32.2401 46.9774 36.5694 43.1329 39.5307L43.7217 44.2411C43.8602 45.4187 43.3407 46.527 42.3536 47.1678C41.8687 47.4795 41.2972 47.6526 40.7257 47.6526ZM32.5519 40.4832C32.7943 40.4658 33.0368 40.5352 33.2446 40.6737L40.5006 44.9858C40.6911 45.107 40.847 45.055 40.9509 44.9858C41.0375 44.9338 41.176 44.7953 41.1414 44.5528L40.466 39.0804C40.414 38.5956 40.6218 38.128 41.0028 37.851C44.5356 35.3746 46.5618 31.5993 46.5618 27.495C46.5618 20.3429 40.2928 14.5243 32.5692 14.5243C25.14 14.5243 19.0443 19.9274 18.594 26.7158C19.8928 26.2136 21.2955 25.9365 22.7502 25.9365C28.7247 25.9365 33.5736 30.5083 33.5736 36.1364C33.591 37.6604 33.2273 39.1324 32.5519 40.4832Z" fill="black"/>
<path d="M17.7103 49.1767C17.26 49.1767 16.8271 49.0555 16.4288 48.7958C15.6495 48.2935 15.2339 47.4277 15.3378 46.5098L15.6842 43.8429C13.3463 41.9379 11.9609 39.1152 11.9609 36.1539C11.9609 32.777 13.7273 29.6252 16.6886 27.7376C18.4723 26.5774 20.585 25.954 22.7843 25.954C28.7588 25.954 33.6077 30.5257 33.6077 36.1539C33.6077 38.4398 32.7765 40.6911 31.2526 42.4748C29.2957 44.8473 26.369 46.2327 23.148 46.3366L18.9225 48.8476C18.5415 49.0728 18.1259 49.1767 17.7103 49.1767ZM22.767 28.5516C21.0699 28.5516 19.442 29.0191 18.0739 29.9196C15.8573 31.3397 14.5412 33.6602 14.5412 36.1539C14.5412 38.561 15.7188 40.7604 17.7969 42.1805C18.1952 42.4575 18.403 42.925 18.351 43.4099L17.97 46.3713L22.1089 43.9122C22.3167 43.791 22.5419 43.7216 22.767 43.7216C25.3127 43.7216 27.7198 42.6307 29.2437 40.7777C30.3867 39.427 30.9928 37.8337 30.9928 36.1366C30.9928 31.9631 27.3042 28.5516 22.767 28.5516Z" fill="black"/>
<circle cx="30" cy="30" r="29.5" stroke="black"/>
</svg>
