<svg width="60" height="60" viewBox="0 0 60 60" fill="none" xmlns="http://www.w3.org/2000/svg">
<path d="M21.9843 28.9933C24.4047 33.75 28.2958 37.6411 33.0609 40.0615L36.7587 36.3553C37.2209 35.8931 37.8848 35.7586 38.4647 35.9435C40.3472 36.5654 42.3726 36.9015 44.4652 36.9015C45.3981 36.9015 46.146 37.6495 46.146 38.5824V44.4652C46.146 45.3981 45.3981 46.146 44.4652 46.146C28.6824 46.146 15.8914 33.355 15.8914 17.5722C15.8914 16.6393 16.6477 15.8914 17.5722 15.8914H23.455C24.3879 15.8914 25.1358 16.6393 25.1358 17.5722C25.1358 19.6648 25.472 21.6902 26.0939 23.5727C26.2788 24.1526 26.1443 24.8165 25.6821 25.2787L21.9843 28.9933Z" fill="black"/>
<circle cx="30" cy="30" r="29.5" stroke="black"/>
</svg>
