<svg width="60" height="60" viewBox="0 0 60 60" fill="none" xmlns="http://www.w3.org/2000/svg">
<path d="M30.438 38.2004C25.9009 38.2004 22.2122 34.5117 22.2122 29.9745V20.4499C22.2122 15.9127 25.9009 12.2241 30.438 12.2241C34.9752 12.2241 38.6638 15.9127 38.6638 20.4499V29.9745C38.6638 34.5117 34.9752 38.2004 30.438 38.2004ZM30.438 14.8217C27.3382 14.8217 24.8099 17.3501 24.8099 20.4499V29.9745C24.8099 33.0744 27.3382 35.6027 30.438 35.6027C33.5379 35.6027 36.0662 33.0744 36.0662 29.9745V20.4499C36.0662 17.3501 33.5379 14.8217 30.438 14.8217Z" fill="black"/>
<path d="M30.438 44.2615C22.42 44.2615 15.8914 37.7328 15.8914 29.7148V26.7709C15.8914 26.0608 16.4802 25.472 17.1902 25.472C17.9002 25.472 18.489 26.0608 18.489 26.7709V29.7148C18.489 36.2955 23.8574 41.6639 30.438 41.6639C37.0187 41.6639 42.3871 36.2955 42.3871 29.7148V26.7709C42.3871 26.0608 42.9759 25.472 43.6859 25.472C44.3959 25.472 44.9847 26.0608 44.9847 26.7709V29.7148C44.9847 37.7328 38.456 44.2615 30.438 44.2615Z" fill="black"/>
<path d="M32.8452 22.4934C32.7066 22.4934 32.5508 22.4761 32.3949 22.4241C31.1307 21.9566 29.7453 21.9566 28.4812 22.4241C27.8058 22.6666 27.0611 22.3202 26.8187 21.6448C26.5762 20.9695 26.9226 20.2248 27.598 19.9824C29.4336 19.3243 31.4598 19.3243 33.2954 19.9824C33.9708 20.2248 34.3172 20.9695 34.0747 21.6448C33.8669 22.1644 33.3647 22.4934 32.8452 22.4934Z" fill="black"/>
<path d="M31.8235 26.1647C31.7022 26.1647 31.5983 26.1474 31.4771 26.1128C30.7844 25.9223 30.0744 25.9223 29.3817 26.1128C28.689 26.3033 27.979 25.8876 27.7885 25.1949C27.598 24.5196 28.0136 23.8095 28.7063 23.619C29.832 23.3073 31.0442 23.3073 32.1698 23.619C32.8625 23.8095 33.2781 24.5196 33.0876 25.2122C32.9318 25.7837 32.3949 26.1647 31.8235 26.1647Z" fill="black"/>
<path d="M30.438 49.4567C29.728 49.4567 29.1392 48.8679 29.1392 48.1579V42.9627C29.1392 42.2526 29.728 41.6639 30.438 41.6639C31.1481 41.6639 31.7368 42.2526 31.7368 42.9627V48.1579C31.7368 48.8679 31.1481 49.4567 30.438 49.4567Z" fill="black"/>
<circle cx="30" cy="30" r="29.5" stroke="black"/>
</svg>
