<svg width="30" height="30" viewBox="0 0 30 30" fill="none" xmlns="http://www.w3.org/2000/svg">
<path d="M6.25 19.6875C5.7375 19.6875 5.3125 19.2625 5.3125 18.75V10C5.3125 9.4875 5.7375 9.0625 6.25 9.0625C6.7625 9.0625 7.1875 9.4875 7.1875 10V18.75C7.1875 19.2625 6.7625 19.6875 6.25 19.6875Z" fill="black"/>
<path d="M6.5625 28.4375C3.8 28.4375 1.5625 26.2 1.5625 23.4375C1.5625 20.675 3.8 18.4375 6.5625 18.4375C9.325 18.4375 11.5625 20.675 11.5625 23.4375C11.5625 26.2 9.325 28.4375 6.5625 28.4375ZM6.5625 20.3125C4.8375 20.3125 3.4375 21.7125 3.4375 23.4375C3.4375 25.1625 4.8375 26.5625 6.5625 26.5625C8.2875 26.5625 9.6875 25.1625 9.6875 23.4375C9.6875 21.7125 8.2875 20.3125 6.5625 20.3125Z" fill="black"/>
<path d="M6.25 10.9375C3.6625 10.9375 1.5625 8.8375 1.5625 6.25C1.5625 3.6625 3.6625 1.5625 6.25 1.5625C8.8375 1.5625 10.9375 3.6625 10.9375 6.25C10.9375 8.8375 8.8375 10.9375 6.25 10.9375ZM6.25 3.4375C4.7 3.4375 3.4375 4.7 3.4375 6.25C3.4375 7.8 4.7 9.0625 6.25 9.0625C7.8 9.0625 9.0625 7.8 9.0625 6.25C9.0625 4.7 7.8 3.4375 6.25 3.4375Z" fill="black"/>
<path d="M23.75 10.9375C21.1625 10.9375 19.0625 8.8375 19.0625 6.25C19.0625 3.6625 21.1625 1.5625 23.75 1.5625C26.3375 1.5625 28.4375 3.6625 28.4375 6.25C28.4375 8.8375 26.3375 10.9375 23.75 10.9375ZM23.75 3.4375C22.2 3.4375 20.9375 4.7 20.9375 6.25C20.9375 7.8 22.2 9.0625 23.75 9.0625C25.3 9.0625 26.5625 7.8 26.5625 6.25C26.5625 4.7 25.3 3.4375 23.75 3.4375Z" fill="black"/>
<path d="M6.41264 19.6875C6.33764 19.6875 6.26263 19.675 6.17513 19.6625C5.67513 19.5375 5.37514 19.025 5.50014 18.525C6.18764 15.875 8.57513 14.025 11.3126 14.025C11.3251 14.025 11.3251 14.025 11.3376 14.025L15.6251 14.0375C15.6376 14.0375 15.6376 14.0375 15.6501 14.0375C18.4251 14.0375 20.9126 12.275 21.8251 9.65002C22.0001 9.16252 22.5251 8.90003 23.0126 9.07503C23.5001 9.25003 23.7626 9.77501 23.5876 10.2625C22.4126 13.65 19.1751 15.875 15.6126 15.9125L11.3251 15.9H11.3126C9.42513 15.9 7.78763 17.175 7.31263 19C7.21263 19.4125 6.82514 19.6875 6.41264 19.6875Z" fill="black"/>
</svg>
