<svg width="30" height="30" viewBox="0 0 30 30" fill="none" xmlns="http://www.w3.org/2000/svg">
<path d="M15 28.45C13.6375 28.45 12.2875 28.05 11.225 27.2625L5.85 23.25C4.425 22.1875 3.3125 19.9625 3.3125 18.2V8.90005C3.3125 6.97505 4.725 4.92505 6.5375 4.25005L12.775 1.91255C14.0125 1.45005 15.9625 1.45005 17.2 1.91255L23.4375 4.25005C25.25 4.92505 26.6625 6.97505 26.6625 8.90005V18.1875C26.6625 19.9625 25.55 22.175 24.125 23.2375L18.75 27.25C17.7125 28.05 16.3625 28.45 15 28.45ZM13.4375 3.67505L7.2 6.01255C6.1375 6.41255 5.2 7.76255 5.2 8.91255V18.2C5.2 19.3875 6.0375 21.05 6.975 21.75L12.35 25.7625C13.7875 26.8375 16.2125 26.8375 17.6625 25.7625L23.0375 21.75C23.9875 21.0375 24.8125 19.3875 24.8125 18.2V8.90005C24.8125 7.76255 23.875 6.41255 22.8125 6.00005L16.575 3.66255C15.725 3.36255 14.275 3.36255 13.4375 3.67505Z" fill="black"/>
<path d="M13.325 17.7875C13.0875 17.7875 12.85 17.7 12.6625 17.5125L10.65 15.5C10.2875 15.1375 10.2875 14.5375 10.65 14.175C11.0125 13.8125 11.6125 13.8125 11.975 14.175L13.325 15.525L18.0375 10.8125C18.4 10.45 19 10.45 19.3625 10.8125C19.725 11.175 19.725 11.775 19.3625 12.1375L13.9875 17.5125C13.8 17.7 13.5625 17.7875 13.325 17.7875Z" fill="black"/>
</svg>
