<svg width="292" height="292" viewBox="0 0 292 292" fill="none" xmlns="http://www.w3.org/2000/svg">
<path opacity="0.995" fill-rule="evenodd" clip-rule="evenodd" d="M155.41 27.0898C157.957 27.6029 160.238 28.7435 162.254 30.5117C163.979 32.4477 164.739 34.729 164.535 37.3555C164.189 41.8397 163.619 46.2121 162.824 50.4727C161.684 50.4727 160.543 50.4727 159.402 50.4727C160.445 45.3894 160.731 40.2566 160.258 35.0742C159.307 32.9837 157.691 31.748 155.41 31.3672C150.379 29.8119 145.247 29.0515 140.012 29.0859C145.427 30.637 150.655 32.6331 155.695 35.0742C156.548 39.9865 157.213 44.9292 157.691 49.9023C155.854 49.2903 154.048 49.2903 152.273 49.9023C151.704 52.168 151.514 54.4492 151.703 56.7461C154.896 57.8953 158.539 58.5086 162 58.5C162 59.2602 161.684 59.9781 161.684 60.7383C161.684 61.689 161.684 62.6391 161.684 63.5898C161.5 64.5 161.5 65 161.5 65.5C158.613 65.4173 155.375 64.8377 152.559 64.1602C151.49 64.0974 150.634 64.4772 149.992 65.3008C149.612 67.3921 149.612 69.4829 149.992 71.5742C150.277 71.8594 150.562 72.1445 150.848 72.4297C153.229 72.6732 155.605 72.9584 157.977 73.2852C158.935 73.3467 159.601 73.7271 159.973 74.4258C159.733 78.0547 159.353 81.6665 158.832 85.2617C143.819 83.5131 128.801 81.8022 113.777 80.1289C114.122 76.0272 114.693 72.035 115.488 68.1523C119.094 68.5955 122.706 68.6907 126.324 68.4375C126.782 66.6707 127.162 64.8645 127.465 63.0195C127.448 62.1475 127.068 61.482 126.324 61.0234C122.909 60.6248 119.487 60.3396 116.059 60.168C116.53 57.9215 116.911 55.6401 117.199 53.3242C120.805 53.7674 124.417 53.8624 128.035 53.6094C129.411 51.0731 129.411 48.6018 128.035 46.1953C124.835 45.5501 121.603 45.2649 118.34 45.3398C118.678 40.1649 119.343 35.0321 120.336 29.9414C122.347 26.0398 125.579 23.9486 130.031 23.668C138.501 24.786 146.96 25.9266 155.41 27.0898Z" fill="#2D1A2A"/>
<path fill-rule="evenodd" clip-rule="evenodd" d="M159.402 50.4727C158.5 50 159.5 50.5 157.691 49.9024C157.213 44.9292 156.548 39.9866 155.695 35.0742C150.655 32.6331 145.427 30.637 140.012 29.086C145.247 29.0516 150.379 29.812 155.41 31.3672C157.691 31.7481 159.307 32.9838 160.258 35.0742C160.731 40.2566 160.445 45.3894 159.402 50.4727Z" fill="#2D1A2A"/>
<path opacity="0.981" fill-rule="evenodd" clip-rule="evenodd" d="M118.34 45.3398C121.603 45.2649 124.835 45.55 128.035 46.1953C129.411 48.6018 129.411 51.0731 128.035 53.6094C124.417 53.8624 120.805 53.7673 117.199 53.3242C117.395 50.6137 117.775 47.9523 118.34 45.3398Z" fill="#2D1A2A"/>
<path fill-rule="evenodd" clip-rule="evenodd" d="M157.691 49.9023C159.5 50.5 158.5 50 159.402 50.4727C160.543 50.4727 161.684 50.4727 162.824 50.4727C162.678 54.0015 162.298 57.4236 161.684 60.7383C161.684 59.9781 162 59.2602 162 58.5C158.539 58.5086 154.896 57.8953 151.703 56.7461C151.514 54.4492 151.704 52.168 152.273 49.9023C154.048 49.2903 155.854 49.2903 157.691 49.9023Z" fill="#2D1A2A"/>
<path opacity="0.985" fill-rule="evenodd" clip-rule="evenodd" d="M116.059 60.168C119.487 60.3396 122.909 60.6248 126.324 61.0234C127.068 61.482 127.448 62.1475 127.465 63.0195C127.162 64.8645 126.782 66.6707 126.324 68.4375C122.706 68.6907 119.094 68.5955 115.488 68.1523C115.585 65.4827 115.775 62.8211 116.059 60.168Z" fill="#2D1A2A"/>
<path fill-rule="evenodd" clip-rule="evenodd" d="M161.683 63.5898C161.169 67.2866 160.599 70.899 159.973 74.4258C159.601 73.7271 158.935 73.3468 157.976 73.2852C155.605 72.9584 153.229 72.6732 150.848 72.4297C150.562 72.1445 150.277 71.8594 149.992 71.5742C149.612 69.4829 149.612 67.3921 149.992 65.3008C150.634 64.4772 151.49 64.0974 152.558 64.1602C155.375 64.8377 158.226 65.2181 161.113 65.3008C160.978 64.5645 161.168 63.9942 161.683 63.5898Z" fill="#2D1A2A"/>
<path opacity="0.994" fill-rule="evenodd" clip-rule="evenodd" d="M113.777 80.1289C128.801 81.8022 143.819 83.5131 158.832 85.2617C157.269 95.6705 155.844 106.126 154.555 116.629C154.13 119.576 152.705 121.857 150.277 123.473C147.97 124.667 145.499 125.237 142.863 125.184C133.471 124.271 124.156 122.941 114.918 121.191C113.967 120.051 113.017 118.91 112.066 117.77C125.283 119.287 131.271 113.393 130.031 100.09C126.755 92.5075 120.956 89.2756 112.637 90.3945C112.924 86.9607 113.303 83.5388 113.777 80.1289Z" fill="#297EEE"/>
<path opacity="0.997" fill-rule="evenodd" clip-rule="evenodd" d="M112.637 90.3945C120.957 89.2756 126.755 92.5075 130.031 100.09C131.271 113.393 125.283 119.287 112.067 117.77C111.686 117.58 111.306 117.389 110.926 117.199C104.129 113.682 101.468 108.169 102.942 100.66C104.197 95.4116 107.429 91.9897 112.637 90.3945Z" fill="#32B0CF"/>
<path fill-rule="evenodd" clip-rule="evenodd" d="M112.066 94.9571C118.57 92.9119 123.227 95.0027 126.039 101.23C126.419 102.371 126.419 103.512 126.039 104.652C123.486 98.3926 118.828 95.1607 112.066 94.9571Z" fill="#32B0CF"/>
<path fill-rule="evenodd" clip-rule="evenodd" d="M152.559 98.9492C152.694 98.2129 152.504 97.6426 151.988 97.2383C152.425 95.1492 152.901 93.0585 153.414 90.9648C153.589 93.7394 153.304 96.4005 152.559 98.9492Z" fill="#297EEE"/>
<path fill-rule="evenodd" clip-rule="evenodd" d="M151.988 97.2383C152.504 97.6426 152.694 98.2129 152.559 98.9492C152.118 105.323 151.073 111.596 149.422 117.77C148.754 118.564 147.899 119.04 146.855 119.195C142.256 119.687 137.694 119.498 133.168 118.625C136.612 118.03 140.033 117.269 143.434 116.344C144.879 116.049 146.114 115.384 147.141 114.348C149.115 108.729 150.731 103.026 151.988 97.2383Z" fill="#297EEE"/>
<path opacity="0.974" fill-rule="evenodd" clip-rule="evenodd" d="M102.941 100.66C101.468 108.169 104.129 113.682 110.926 117.199C111.061 117.935 110.871 118.506 110.355 118.91C99.4699 120.44 88.634 122.151 77.8477 124.043C77.4376 118.555 77.0572 113.042 76.707 107.504C85.4203 105.106 94.1649 102.825 102.941 100.66Z" fill="#126999"/>
<path opacity="0.986" fill-rule="evenodd" clip-rule="evenodd" d="M76.707 107.504C77.0572 113.042 77.4376 118.555 77.8477 124.043C77.8271 126.153 76.8764 127.674 74.9961 128.605C69.4595 128.967 63.9463 129.537 58.457 130.316C56.9362 129.936 55.9857 128.986 55.6055 127.465C55.7914 122.607 55.6013 117.855 55.0352 113.207C55.2821 111.67 56.0425 110.434 57.3164 109.5C62.5131 108.13 67.7411 106.894 73 105.793C74.4321 105.987 75.6679 106.557 76.707 107.504Z" fill="#32B0CF"/>
<path fill-rule="evenodd" clip-rule="evenodd" d="M69.8633 109.215C71.5138 108.954 72.9395 109.334 74.1406 110.355C74.399 114.172 74.2085 117.974 73.5703 121.762C73.1066 118.273 71.8714 115.136 69.8633 112.352C67.3436 112.233 64.8725 111.853 62.4492 111.211C65.0595 110.797 67.5307 110.132 69.8633 109.215Z" fill="#32B0CF"/>
<path opacity="0.949" fill-rule="evenodd" clip-rule="evenodd" d="M55.0351 113.207C55.6013 117.855 55.7914 122.607 55.6054 127.465C53.1221 127.738 50.6507 128.118 48.1914 128.605C46.1268 128.347 44.8911 127.206 44.4843 125.184C43.915 122.536 43.7248 119.874 43.914 117.199C44.3893 116.724 44.8646 116.249 45.3398 115.773C48.5977 114.972 51.8294 114.117 55.0351 113.207Z" fill="#126999"/>
<path opacity="0.925" fill-rule="evenodd" clip-rule="evenodd" d="M110.926 117.199C111.306 117.389 111.686 117.58 112.066 117.77C113.017 118.91 113.967 120.051 114.918 121.191C112.296 138.632 113.722 155.741 119.195 172.52C120.348 175.213 121.774 177.685 123.473 179.934C123.328 181.952 122.948 183.853 122.332 185.637C116.5 178.536 112.793 170.361 111.211 161.113C108.868 147.09 108.583 133.023 110.355 118.91C110.871 118.506 111.061 117.935 110.926 117.199Z" fill="#2C1828"/>
<path opacity="0.925" fill-rule="evenodd" clip-rule="evenodd" d="M169.442 178.454C169.059 178.269 168.677 178.084 168.294 177.899C167.328 176.771 166.363 175.643 165.398 174.515C167.791 157.042 166.141 139.952 160.449 123.247C159.26 120.569 157.802 118.116 156.075 115.889C156.193 113.869 156.547 111.963 157.141 110.172C163.064 117.196 166.878 125.321 168.582 134.548C171.108 148.539 171.577 162.601 169.99 176.736C169.479 177.147 169.297 177.72 169.442 178.454Z" fill="#2C1828"/>
<path opacity="0.974" fill-rule="evenodd" clip-rule="evenodd" d="M74.9961 128.605C70.3326 177.24 65.7701 225.907 61.3086 274.605C54.6549 274.605 48.0013 274.605 41.3477 274.605C46.8032 226.455 52.5063 178.358 58.457 130.316C63.9463 129.537 69.4595 128.967 74.9961 128.605Z" fill="#126999"/>
<path opacity="0.994" fill-rule="evenodd" clip-rule="evenodd" d="M189.629 209.02C186.667 204.616 184.29 199.863 182.5 194.762C180.769 185.187 179.153 175.682 177.652 166.246C177.652 166.056 177.652 165.866 177.652 165.676C177.153 161.395 176.582 157.118 175.941 152.844C176.131 152.178 176.322 151.513 176.512 150.848C198.506 139.151 221.414 136.489 245.234 142.863C247.525 158.609 249.521 174.387 251.223 190.199C251.168 197.875 248.791 204.718 244.094 210.73C238.846 215.79 233.428 220.637 227.84 225.273C226.326 226.095 224.71 226.57 222.992 226.699C213.048 224.149 203.828 220.061 195.332 214.438C193.505 212.515 191.604 210.709 189.629 209.02Z" fill="#FD1515"/>
<path fill-rule="evenodd" clip-rule="evenodd" d="M56.1758 266.051C55.6134 263.501 55.4232 260.84 55.6055 258.066C58.1844 223.568 61.7015 189.16 66.1562 154.84C66.5612 150.309 67.5113 145.937 69.0078 141.723C66.726 183.363 62.4486 224.806 56.1758 266.051Z" fill="#126999"/>
<path fill-rule="evenodd" clip-rule="evenodd" d="M244.949 181.074C244.759 181.074 244.569 181.074 244.379 181.074C242.251 170.282 239.59 159.637 236.395 149.137C232.02 147.298 227.457 146.253 222.707 146C216.235 145.758 209.771 145.758 203.316 146C213.702 143.87 224.157 143.491 234.684 144.859C236.737 145.396 238.733 146.061 240.672 146.856C242.286 158.245 243.712 169.651 244.949 181.074Z" fill="#FD1515"/>
<path fill-rule="evenodd" clip-rule="evenodd" d="M224.988 159.973C228.242 160.082 230.238 161.793 230.977 165.105C231.357 167.577 231.357 170.048 230.977 172.52C230.517 175.363 228.901 176.408 226.129 175.656C222.927 171.958 221.881 167.68 222.992 162.824C223.561 161.785 224.226 160.834 224.988 159.973Z" fill="#301929"/>
<path opacity="0.99" fill-rule="evenodd" clip-rule="evenodd" d="M165.105 162.254C166.255 163.066 167.585 163.446 169.098 163.395C172.032 163.89 174.884 164.651 177.652 165.676C177.652 165.866 177.652 166.056 177.652 166.246C177.114 176.888 177.019 187.533 177.367 198.184C178.591 205.57 182.488 210.892 189.059 214.152C187.827 225.356 182.504 234.006 173.09 240.102C166.251 243.552 159.218 246.499 151.988 248.941C150.804 248.832 149.663 248.547 148.566 248.086C141.535 243.281 134.976 237.863 128.891 231.832C122.875 224.243 119.929 215.594 120.051 205.883C120.464 199.095 121.224 192.346 122.332 185.637C122.948 183.853 123.328 181.953 123.473 179.934C124.327 174.427 125.182 168.913 126.039 163.395C126.324 163.109 126.609 162.824 126.894 162.539C139.616 159.988 152.353 159.893 165.105 162.254Z" fill="#32B0CF"/>
<path fill-rule="evenodd" clip-rule="evenodd" d="M198.184 163.395C201.461 163.531 203.457 165.242 204.172 168.527C204.657 171.808 204.467 175.04 203.602 178.223C201.521 180.56 199.62 180.37 197.898 177.652C195.232 172.754 195.327 168.002 198.184 163.395Z" fill="#311929"/>
<path fill-rule="evenodd" clip-rule="evenodd" d="M142.863 163.965C152.612 163.118 161.927 164.734 170.809 168.812C166.104 168.009 161.351 167.249 156.551 166.531C149.897 166.341 143.244 166.151 136.59 165.961C138.718 165.196 140.81 164.53 142.863 163.965Z" fill="#32B0CF"/>
<path fill-rule="evenodd" clip-rule="evenodd" d="M177.652 166.246C179.153 175.682 180.769 185.187 182.5 194.762C184.29 199.863 186.667 204.616 189.629 209.02C189.253 210.705 189.063 212.416 189.059 214.152C182.488 210.892 178.591 205.57 177.367 198.184C177.019 187.533 177.114 176.888 177.652 166.246Z" fill="#32B0CF"/>
<path fill-rule="evenodd" clip-rule="evenodd" d="M143.434 181.074C147.222 181.553 148.743 183.739 147.996 187.633C148.303 190.458 147.638 193.024 146 195.332C144.588 197.057 142.878 197.436 140.867 196.473C138.438 190.772 139.293 185.64 143.434 181.074Z" fill="#301B29"/>
<path fill-rule="evenodd" clip-rule="evenodd" d="M244.379 181.074C244.569 181.074 244.759 181.074 244.949 181.074C245.537 186.264 245.347 186.264 244.379 181.074Z" fill="#FD1515"/>
<path fill-rule="evenodd" clip-rule="evenodd" d="M217.004 183.926C225.637 183.629 231.626 187.431 234.969 195.332C235.349 196.283 235.349 197.233 234.969 198.184C229.363 190.232 222.044 188.045 213.012 191.625C208.502 194.274 205.746 198.17 204.742 203.316C203.885 193.64 207.973 187.177 217.004 183.926Z" fill="#331A29"/>
<path fill-rule="evenodd" clip-rule="evenodd" d="M169.668 185.637C173.428 185.496 175.138 187.398 174.801 191.34C174.672 194.137 174.006 196.799 172.805 199.324C170.325 202.545 168.234 202.355 166.531 198.754C165.381 193.765 166.426 189.393 169.668 185.637Z" fill="#2F1B29"/>
<path fill-rule="evenodd" clip-rule="evenodd" d="M141.152 204.457C144.625 216.461 152.419 220.738 164.535 217.289C167.455 215.701 169.831 213.515 171.664 210.73C170.351 217.939 166.074 222.406 158.832 224.133C149.997 224.81 144.2 220.913 141.438 212.441C141.153 209.787 141.058 207.126 141.152 204.457Z" fill="#321D29"/>
<path fill-rule="evenodd" clip-rule="evenodd" d="M55.6054 258.066C55.4232 260.84 55.6133 263.501 56.1757 266.051C56.1415 266.36 55.9514 266.55 55.6054 266.621C54.8562 263.683 54.8562 260.831 55.6054 258.066Z" fill="#126999"/>
</svg>
