<svg width="292" height="292" viewBox="0 0 292 292" fill="none" xmlns="http://www.w3.org/2000/svg">
<path opacity="0.984" fill-rule="evenodd" clip-rule="evenodd" d="M80.129 19.1055C76.5867 21.2174 73.2595 23.6887 70.1485 26.5196C69.4116 25.7832 68.7467 25.7832 68.1524 26.5196C63.299 26.6872 58.7365 27.9229 54.4649 30.2266C50.946 33.1749 50.7558 36.3116 53.8946 39.6367C51.3703 41.082 49.0891 42.793 47.0508 44.7696C49.6328 43.3336 52.1992 41.8128 54.7501 40.2071C51.2008 35.0541 52.4365 31.347 58.4571 29.086C62.001 28.0159 65.6134 27.3505 69.293 27.0899C63.2249 33.4795 60.849 41.0836 62.1641 49.9024C63.1998 52.723 64.0553 55.5745 64.7305 58.4571C62.9757 61.7324 60.314 64.1089 56.7461 65.586C46.4491 67.9317 37.6093 65.3653 30.2266 57.8867C28.539 55.2186 28.444 52.5571 29.9415 49.9024C30.7683 48.0292 32.0991 46.6034 33.9336 45.625C37.5727 43.5867 41.3748 41.8758 45.3399 40.4922C42.598 37.218 42.3128 33.7011 44.4844 29.9414C53.2234 16.0343 65.1052 12.4223 80.129 19.1055Z" fill="#242222"/>
<path opacity="0.989" fill-rule="evenodd" clip-rule="evenodd" d="M116.059 49.9023C114.712 50.8684 113.571 52.009 112.637 53.3242C113.229 45.7624 110.662 39.489 104.937 34.5039C98.8471 38.0475 92.2885 40.2337 85.2617 41.0625C86.379 41.5934 87.5196 42.0687 88.6836 42.4883C89.1889 42.9588 89.3788 43.5291 89.2539 44.1992C86.5791 43.8355 83.9181 43.3603 81.2695 42.7734C82.0298 42.3932 82.7905 42.013 83.5508 41.6328C80.02 41.4776 76.5034 41.1924 73 40.7773C69.7772 41.8995 68.6365 44.1807 69.5781 47.6211C70.7963 50.4669 72.9823 51.7976 76.1367 51.6133C76.3945 54.9601 75.9194 58.1918 74.7109 61.3086C73.9091 62.9676 72.6738 64.1082 71.0039 64.7304C68.774 62.7064 66.6826 60.6151 64.7305 58.457C64.0552 55.5745 63.1997 52.7229 62.1641 49.9023C60.8489 41.0836 63.2248 33.4794 69.293 27.0898C69.0979 26.6118 68.7181 26.4216 68.1523 26.5195C68.7466 25.7832 69.4116 25.7832 70.1484 26.5195C73.2595 23.6886 76.5867 21.2173 80.1289 19.1054C92.4796 14.4455 102.08 17.6773 108.93 28.8008C115.009 30.3181 118.145 34.2152 118.34 40.4922C118.121 43.7769 117.361 46.9137 116.059 49.9023Z" fill="#393434"/>
<path fill-rule="evenodd" clip-rule="evenodd" d="M89.2539 29.9414C89.9799 30.2704 89.9799 30.6506 89.2539 31.082C84.376 32.8966 79.4331 33.1818 74.4258 31.9375C75.7569 31.7441 77.088 31.8391 78.418 32.2227C82.214 31.9684 85.8258 31.208 89.2539 29.9414Z" fill="#BBBABA"/>
<path fill-rule="evenodd" clip-rule="evenodd" d="M99.5195 30.5117C100.019 30.437 100.4 30.6272 100.66 31.082C93.1092 34.8711 85.1248 36.4869 76.707 35.9297C84.7587 35.722 92.3627 33.9159 99.5195 30.5117Z" fill="#C2C0C0"/>
<path fill-rule="evenodd" clip-rule="evenodd" d="M112.637 53.3242C110.762 60.2136 107.34 66.2019 102.371 71.2891C96.2756 75.3776 89.8122 76.0432 82.9805 73.2852C81.6562 72.051 80.1352 71.1003 78.418 70.4336C79.3481 71.6558 80.4888 72.6065 81.8398 73.2852C81.8398 74.4258 81.8398 75.5664 81.8398 76.707C76.4247 75.1295 70.9121 73.9889 65.3008 73.2852C68.4392 71.414 70.3406 68.5624 71.0039 64.7305C72.6738 64.1083 73.9091 62.9676 74.7109 61.3086C75.9194 58.1918 76.3945 54.9602 76.1367 51.6133C72.9823 51.7977 70.7963 50.467 69.5781 47.6211C68.6365 44.1807 69.7772 41.8995 73 40.7773C76.5034 41.1924 80.02 41.4776 83.5508 41.6328C82.7906 42.013 82.0298 42.3932 81.2695 42.7734C83.9181 43.3603 86.5791 43.8355 89.2539 44.1992C89.3788 43.5291 89.1889 42.9588 88.6836 42.4883C87.5196 42.0687 86.379 41.5934 85.2617 41.0625C92.2885 40.2337 98.8471 38.0475 104.938 34.5039C110.662 39.489 113.229 45.7624 112.637 53.3242Z" fill="#FCAE8B"/>
<path fill-rule="evenodd" clip-rule="evenodd" d="M112.637 36.7852C111.527 36.3549 111.052 35.5945 111.211 34.5039C112.056 35.0576 112.531 35.818 112.637 36.7852Z" fill="#B9B8B8"/>
<path fill-rule="evenodd" clip-rule="evenodd" d="M68.1523 26.5195C68.7181 26.4216 69.0979 26.6118 69.293 27.0898C65.6133 27.3505 62.001 28.0158 58.457 29.0859C52.4364 31.347 51.2007 35.054 54.75 40.207C52.1991 41.8127 49.6327 43.3336 47.0508 44.7695C49.089 42.7929 51.3703 41.082 53.8945 39.6367C50.7558 36.3115 50.9459 33.1748 54.4648 30.2265C58.7365 27.9229 63.299 26.6872 68.1523 26.5195Z" fill="#B4B4B4"/>
<path fill-rule="evenodd" clip-rule="evenodd" d="M112.637 36.7852C113.551 37.234 113.932 37.9944 113.777 39.0664C113.108 38.4883 112.728 37.7279 112.637 36.7852Z" fill="#CCCBCB"/>
<path fill-rule="evenodd" clip-rule="evenodd" d="M113.777 39.0664C115.062 40.7846 115.443 42.6857 114.918 44.7695C114.292 42.9145 113.912 41.0134 113.777 39.0664Z" fill="#AFADAD"/>
<path fill-rule="evenodd" clip-rule="evenodd" d="M71.5742 44.1992C72.7245 43.4156 73.8652 43.5106 74.9961 44.4843C74.6967 44.8792 74.3163 45.1644 73.8555 45.3398C73.2715 44.5681 72.5112 44.1879 71.5742 44.1992Z" fill="#8C6759"/>
<path fill-rule="evenodd" clip-rule="evenodd" d="M47.0508 44.7695C46.616 45.7746 45.8556 46.345 44.7695 46.4805C45.2043 45.4753 45.9647 44.905 47.0508 44.7695Z" fill="#B3B2B2"/>
<path fill-rule="evenodd" clip-rule="evenodd" d="M104.652 45.9102C108.038 46.1673 110.034 47.8782 110.641 51.043C109.001 49.3531 107.005 48.3076 104.652 47.9062C103.977 47.253 103.977 46.5876 104.652 45.9102Z" fill="#4D403C"/>
<path fill-rule="evenodd" clip-rule="evenodd" d="M83.5508 47.6211C86.1206 47.0663 87.3559 48.0168 87.2578 50.4726C84.7382 52.2834 83.1225 51.618 82.4102 48.4765C82.9326 48.3178 83.3124 48.0326 83.5508 47.6211Z" fill="#403836"/>
<path fill-rule="evenodd" clip-rule="evenodd" d="M44.7695 46.4805C43.2487 48.3815 41.5377 50.0924 39.6367 51.6133C40.7773 49.332 42.4883 47.6211 44.7695 46.4805Z" fill="#AEADAD"/>
<path opacity="0.978" fill-rule="evenodd" clip-rule="evenodd" d="M29.9414 49.9024C28.444 52.5571 28.539 55.2186 30.2266 57.8867C37.6092 65.3652 46.4491 67.9316 56.7461 65.5859C60.314 64.1088 62.9756 61.7323 64.7305 58.457C66.6827 60.6151 68.774 62.7064 71.0039 64.7305C70.3406 68.5624 68.4392 71.414 65.3008 73.2852C63.1057 75.3896 61.2042 77.7661 59.5977 80.4141C53.6485 81.6152 47.9453 83.5166 42.4883 86.1172C39.3257 88.3289 36.7593 91.0852 34.7891 94.3867C29.9694 111.64 26.1673 129.13 23.3828 146.855C23.0026 151.228 23.0026 155.6 23.3828 159.973C23.9109 161.223 24.5763 162.363 25.3789 163.395C20.6509 164.443 17.5142 162.732 15.9688 158.262C15.5885 124.043 15.5885 89.8242 15.9688 55.6055C16.3496 53.325 17.5853 51.7091 19.6758 50.7578C23.0605 50.0514 26.4824 49.7663 29.9414 49.9024Z" fill="#126999"/>
<path opacity="0.993" fill-rule="evenodd" clip-rule="evenodd" d="M116.059 49.9023C123.855 49.8073 131.649 49.9024 139.441 50.1875C142.454 50.5384 144.45 52.1543 145.43 55.0351C145.715 72.7137 145.81 90.3934 145.715 108.074C144.857 109.406 143.716 110.452 142.293 111.211C136.275 115.046 130.192 118.753 124.043 122.332C123.853 122.332 123.663 122.332 123.473 122.332C117.105 112.645 111.307 102.569 106.078 92.1054C100.132 86.0407 93.0031 81.9533 84.6914 79.8437C84.1838 78.3238 83.2331 77.2779 81.8398 76.707C81.8398 75.5664 81.8398 74.4258 81.8398 73.2851C82.2202 73.2851 82.6001 73.2851 82.9805 73.2851C89.8122 76.0432 96.2756 75.3776 102.371 71.289C107.34 66.2019 110.762 60.2136 112.637 53.3242C113.571 52.009 114.712 50.8684 116.059 49.9023Z" fill="#126999"/>
<path fill-rule="evenodd" clip-rule="evenodd" d="M49.9023 49.332C50.3237 49.2573 50.704 49.3524 51.0429 49.6172C49.405 51.0638 47.9792 52.6797 46.7656 54.4648C46.5858 53.662 46.7759 52.9016 47.3359 52.1836C48.3096 51.3067 49.1651 50.3563 49.9023 49.332Z" fill="#AFAFAF"/>
<path fill-rule="evenodd" clip-rule="evenodd" d="M39.6367 51.6133C39.7291 52.7695 39.6341 53.9101 39.3515 55.0352C38.2748 53.7975 38.3698 52.6569 39.6367 51.6133Z" fill="#A09F9F"/>
<path fill-rule="evenodd" clip-rule="evenodd" d="M103.512 53.3242C106.914 52.9981 107.864 54.2338 106.363 57.0312C103.079 57.6808 102.128 56.445 103.512 53.3242Z" fill="#413837"/>
<path fill-rule="evenodd" clip-rule="evenodd" d="M95.5273 50.4727C96.575 52.1944 96.8602 54.0955 96.3828 56.1758C95.1224 56.888 93.8871 56.793 92.6758 55.8906C93.6077 55.6092 94.5584 55.5141 95.5273 55.6055C95.5273 53.8945 95.5273 52.1836 95.5273 50.4727Z" fill="#916B5B"/>
<path opacity="0.849" fill-rule="evenodd" clip-rule="evenodd" d="M161.113 57.3164C162.779 57.1145 164.11 57.6848 165.106 59.0273C166.001 57.9352 167.142 57.3649 168.527 57.3164C168.766 58.9275 168.196 60.1628 166.816 61.0234C168.196 61.884 168.766 63.1193 168.527 64.7304C166.916 64.9694 165.681 64.3991 164.82 63.0195C163.96 64.3991 162.724 64.9694 161.113 64.7304C161.162 63.3452 161.732 62.2045 162.824 61.3086C161.482 60.3128 160.911 58.9823 161.113 57.3164Z" fill="#32B0CF"/>
<path fill-rule="evenodd" clip-rule="evenodd" d="M46.4804 57.8867C47.3842 58.173 47.6694 58.7433 47.3359 59.5977C46.7436 59.1733 46.4584 58.603 46.4804 57.8867Z" fill="#AEAEAE"/>
<path fill-rule="evenodd" clip-rule="evenodd" d="M89.8242 57.8867C92.7339 58.6224 95.5855 59.5731 98.3789 60.7383C96.7717 62.7635 94.6804 63.6189 92.1054 63.3047C90.1305 62.0785 89.3702 60.2729 89.8242 57.8867Z" fill="#FFF9F6"/>
<path fill-rule="evenodd" clip-rule="evenodd" d="M78.418 70.4336C76.6711 69.549 75.1506 68.3132 73.8555 66.7266C75.7404 67.3619 77.2614 68.5978 78.418 70.4336Z" fill="#7E5F52"/>
<path fill-rule="evenodd" clip-rule="evenodd" d="M78.418 70.4336C80.1352 71.1003 81.6562 72.051 82.9805 73.2852C82.6001 73.2852 82.2202 73.2852 81.8398 73.2852C80.4888 72.6065 79.3481 71.6558 78.418 70.4336Z" fill="#795D52"/>
<path opacity="0.999" fill-rule="evenodd" clip-rule="evenodd" d="M65.3008 73.2852C70.9121 73.9889 76.4247 75.1295 81.8399 76.707C83.2331 77.2779 84.1838 78.3239 84.6914 79.8438C93.0032 81.9533 100.132 86.0408 106.078 92.1055C111.307 102.569 117.105 112.645 123.473 122.332C123.125 122.84 122.935 123.41 122.902 124.043C123.704 123.773 124.085 123.203 124.043 122.332C130.192 118.753 136.275 115.046 142.293 111.211C143.716 110.452 144.857 109.406 145.715 108.074C146.095 108.074 146.475 108.074 146.855 108.074C149.539 110.759 152.39 113.23 155.41 115.488C152.178 119.291 148.947 123.092 145.715 126.895C140.029 132.677 133.755 137.715 126.895 142.008C123.555 143.634 120.133 143.824 116.629 142.578C110.16 138.681 105.028 133.453 101.23 126.895C101.069 126.445 100.784 126.064 100.375 125.754C99.9182 127.389 100.013 128.91 100.66 130.316C101.426 141.386 102.566 152.412 104.082 163.395C103.892 163.395 103.702 163.395 103.512 163.395C101.722 161.13 99.6308 159.134 97.2383 157.406C92.1226 154.972 86.7999 153.167 81.2695 151.988C79.1936 150.755 76.9124 149.9 74.4258 149.422C65.7456 147.563 57.0009 146.137 48.1914 145.145C47.2749 140.25 46.7046 135.307 46.4805 130.316C46.7115 128.293 46.4264 126.392 45.625 124.613C44.0593 130.826 42.8236 137.099 41.918 143.434C37.0869 143.698 32.3343 144.364 27.6602 145.43C32.5111 144.98 37.2637 144.695 41.918 144.574C43.4388 144.764 44.9596 144.955 46.4805 145.145C46.8607 145.334 47.2409 145.525 47.6211 145.715C58.7935 147.07 69.8194 149.161 80.6992 151.988C79.7594 155.906 79.189 159.898 78.9883 163.965C62.8467 164.934 46.6878 165.219 30.5117 164.82C28.6006 164.788 26.8896 164.312 25.3789 163.395C24.5763 162.363 23.9109 161.223 23.3828 159.973C23.0026 155.6 23.0026 151.228 23.3828 146.855C26.1673 129.13 29.9694 111.64 34.7891 94.3867C36.7593 91.0852 39.3257 88.3289 42.4883 86.1172C47.9453 83.5166 53.6485 81.6151 59.5977 80.4141C61.2042 77.7661 63.1057 75.3896 65.3008 73.2852Z" fill="#32B0CF"/>
<path opacity="0.81" fill-rule="evenodd" clip-rule="evenodd" d="M219.855 78.418C221.324 79.1183 222.655 80.069 223.848 81.2695C224.883 80.5196 225.834 79.6641 226.699 78.7031C228.319 78.4248 228.984 79.0904 228.695 80.6992C227.734 81.5644 226.879 82.5151 226.129 83.5508C227.08 84.6914 228.03 85.832 228.98 86.9727C228.538 88.099 227.778 88.5747 226.699 88.3984C225.834 87.4375 224.883 86.582 223.848 85.832C222.707 86.7827 221.566 87.7329 220.426 88.6836C219.772 88.3157 219.202 87.8407 218.715 87.2578C219.556 85.941 220.507 84.7051 221.566 83.5508C220.507 82.3965 219.556 81.1606 218.715 79.8438C219.217 79.44 219.597 78.9643 219.855 78.418Z" fill="#32B0CF"/>
<path opacity="0.95" fill-rule="evenodd" clip-rule="evenodd" d="M155.41 115.488C152.39 113.23 149.539 110.759 146.855 108.074C150.65 104.599 154.262 100.892 157.691 96.9531C159.212 96.0024 160.733 95.0523 162.254 94.1016C163.186 93.8198 164.137 93.7252 165.105 93.8164C165.221 94.8943 164.841 95.7498 163.965 96.3828C164.155 96.4781 164.345 96.5727 164.535 96.668C168.479 94.7894 172.472 93.0784 176.512 91.5352C176.604 92.6912 176.509 93.8318 176.227 94.957C174.988 97.4345 173.468 99.7157 171.664 101.801C168.118 104.777 164.411 107.534 160.543 110.07C158.7 111.817 156.989 113.623 155.41 115.488Z" fill="#FFAF8C"/>
<path opacity="0.98" fill-rule="evenodd" clip-rule="evenodd" d="M220.426 159.973C218.896 155.412 218.991 150.849 220.711 146.285C220.976 145.469 221.452 144.804 222.137 144.289C227.88 143.306 230.256 139.979 229.266 134.309C227.767 132.89 226.152 132.794 224.418 134.023C223.363 135.174 222.222 136.22 220.996 137.16C220.203 134.955 220.393 132.864 221.566 130.887C220.239 129.077 219.003 127.175 217.859 125.184C219.806 119.284 217.81 115.196 211.871 112.922C209.97 112.541 208.069 112.541 206.168 112.922C199.391 117.367 191.977 119.933 183.926 120.621C178.059 120.553 175.207 117.606 175.371 111.781C176.497 101.913 182.009 97.5411 191.91 98.6641C193.558 99.2509 195.175 99.9159 196.758 100.66C202.649 95.4561 209.018 94.7911 215.863 98.6641C217.217 99.8269 218.358 101.157 219.285 102.656C224.259 102.67 228.726 104.096 232.687 106.934C234.764 109.938 234.479 112.695 231.832 115.203C238.529 120.846 240.905 127.975 238.961 136.59C235.932 144.944 231.084 152.073 224.418 157.977C223.233 158.949 221.903 159.614 220.426 159.973Z" fill="#393433"/>
<path fill-rule="evenodd" clip-rule="evenodd" d="M98.3789 105.793C97.475 105.507 97.1898 104.936 97.5235 104.082C98.116 104.506 98.4012 105.077 98.3789 105.793Z" fill="#754C32"/>
<path fill-rule="evenodd" clip-rule="evenodd" d="M98.3789 105.793C99.7323 106.979 100.492 108.5 100.66 110.355C99.6102 109.016 98.85 107.495 98.3789 105.793Z" fill="#754B32"/>
<path fill-rule="evenodd" clip-rule="evenodd" d="M201.035 108.645C200.131 108.358 199.846 107.788 200.18 106.934C200.772 107.358 201.057 107.928 201.035 108.645Z" fill="#C1BFBF"/>
<path fill-rule="evenodd" clip-rule="evenodd" d="M215.293 109.215C214.18 108.933 213.039 108.743 211.871 108.645C209.436 109.328 206.965 109.899 204.457 110.355C202.856 110.596 201.715 110.026 201.035 108.645C202.167 109.019 203.307 109.398 204.457 109.785C207.008 108.967 209.574 108.206 212.156 107.504C213.524 107.568 214.57 108.139 215.293 109.215Z" fill="#B8B6B6"/>
<path fill-rule="evenodd" clip-rule="evenodd" d="M186.777 112.066C185.349 111.105 184.874 109.774 185.352 108.074C185.999 109.353 186.475 110.684 186.777 112.066Z" fill="#BEBCBC"/>
<path fill-rule="evenodd" clip-rule="evenodd" d="M215.293 109.215C217.028 110.223 218.929 110.888 220.996 111.211C222.036 111.587 222.797 112.253 223.277 113.207C221.348 112.153 219.257 111.487 217.004 111.211C215.905 110.97 215.335 110.305 215.293 109.215Z" fill="#ABA8A8"/>
<path fill-rule="evenodd" clip-rule="evenodd" d="M186.777 112.066C189.088 113.168 191.559 113.833 194.191 114.062C192.67 114.443 191.15 114.443 189.629 114.062C188.271 113.935 187.321 113.27 186.777 112.066Z" fill="#C4C3C3"/>
<path opacity="0.993" fill-rule="evenodd" clip-rule="evenodd" d="M220.426 159.973C220.725 162.911 221.391 165.763 222.422 168.527C224.453 169.877 226.64 170.827 228.981 171.379C227.93 173.665 226.219 175.28 223.848 176.227C218.088 179.036 212.195 179.416 206.168 177.367C202.857 176.188 199.816 174.572 197.043 172.52C198.516 171.927 199.942 171.167 201.32 170.238C202.202 167.256 202.678 164.214 202.746 161.113C191.753 160.86 185.194 155.347 183.07 144.574C181.817 136.532 182.102 128.547 183.926 120.621C191.978 119.933 199.392 117.367 206.168 112.922C208.069 112.541 209.97 112.541 211.871 112.922C217.81 115.196 219.806 119.284 217.859 125.184C219.003 127.175 220.239 129.077 221.566 130.887C220.393 132.864 220.203 134.955 220.996 137.16C222.222 136.22 223.363 135.174 224.418 134.023C226.152 132.794 227.767 132.89 229.266 134.309C230.256 139.979 227.88 143.306 222.137 144.289C221.452 144.804 220.976 145.469 220.711 146.285C218.991 150.849 218.896 155.412 220.426 159.973Z" fill="#FEAF8C"/>
<path fill-rule="evenodd" clip-rule="evenodd" d="M100.66 110.355C101.975 112.481 102.546 114.858 102.371 117.484C102.501 119.81 102.025 121.996 100.945 124.043C101.11 121.783 101.395 119.502 101.801 117.199C101.419 114.912 101.038 112.631 100.66 110.355Z" fill="#6E4832"/>
<path fill-rule="evenodd" clip-rule="evenodd" d="M123.473 122.332C123.663 122.332 123.853 122.332 124.043 122.332C124.085 123.203 123.704 123.773 122.902 124.043C122.935 123.41 123.125 122.84 123.473 122.332Z" fill="#774D33"/>
<path fill-rule="evenodd" clip-rule="evenodd" d="M189.629 125.754C191.161 125.66 192.682 125.756 194.191 126.039C195.031 126.444 195.412 127.109 195.332 128.035C192.474 128.13 189.623 128.035 186.777 127.75C187.766 127.072 188.716 126.406 189.629 125.754Z" fill="#4E453E"/>
<path fill-rule="evenodd" clip-rule="evenodd" d="M223.277 113.207C223.824 113.465 224.299 113.845 224.703 114.348C224.529 118.14 224.529 121.943 224.703 125.754C225.178 126.609 225.844 127.275 226.699 127.75C225.519 127.966 224.663 127.491 224.133 126.324C224.001 121.925 223.715 117.552 223.277 113.207Z" fill="#BDBCBC"/>
<path fill-rule="evenodd" clip-rule="evenodd" d="M46.4805 130.316C46.4805 135.259 46.4805 140.202 46.4805 145.145C44.9596 144.955 43.4388 144.764 41.918 144.574C41.918 144.194 41.918 143.814 41.918 143.434C42.8236 137.099 44.0593 130.826 45.625 124.613C46.4263 126.392 46.7115 128.293 46.4805 130.316Z" fill="#126999"/>
<path opacity="0.987" fill-rule="evenodd" clip-rule="evenodd" d="M101.63 127C105.427 133.558 110.559 138.786 117.028 142.684C120.533 143.93 123.954 143.74 127.294 142.113C134.154 137.82 140.428 132.782 146.114 127C146.209 137.648 146.114 148.293 145.829 158.938C145.127 160.781 143.987 162.302 142.407 163.5C141.204 171.297 142.249 178.806 145.544 186.027C145.461 186.468 145.271 186.848 144.973 187.168C139.907 187.231 135.345 185.71 131.286 182.605C125.392 177.471 121.209 171.198 118.739 163.785C113.99 163.5 109.237 163.405 104.481 163.5C102.965 152.517 101.825 141.492 101.059 130.422C100.891 129.147 101.081 128.007 101.63 127Z" fill="#126999"/>
<path fill-rule="evenodd" clip-rule="evenodd" d="M122.902 124.043C121.305 127.599 119.88 131.211 118.625 134.879C118.991 130.832 120.417 127.22 122.902 124.043Z" fill="#7A4D32"/>
<path fill-rule="evenodd" clip-rule="evenodd" d="M211.301 129.176C214.529 128.794 217.19 129.84 219.285 132.312C216.893 131.798 214.422 131.418 211.871 131.172C211.394 130.595 211.204 129.93 211.301 129.176Z" fill="#473F3B"/>
<path fill-rule="evenodd" clip-rule="evenodd" d="M101.23 126.895C100.682 127.901 100.492 129.042 100.66 130.316C100.013 128.91 99.9182 127.389 100.375 125.754C100.784 126.064 101.069 126.445 101.23 126.895Z" fill="#EBA770"/>
<path fill-rule="evenodd" clip-rule="evenodd" d="M189.629 132.598C192.777 132.908 193.538 134.334 191.91 136.875C188.318 137.157 187.558 135.732 189.629 132.598Z" fill="#413B38"/>
<path fill-rule="evenodd" clip-rule="evenodd" d="M199.895 137.73C200.063 136.634 200.538 135.683 201.32 134.879C201.462 136.115 200.987 137.066 199.895 137.73Z" fill="#716350"/>
<path fill-rule="evenodd" clip-rule="evenodd" d="M211.301 136.02C214.716 136.113 215.476 137.539 213.582 140.297C210.105 140.381 209.345 138.955 211.301 136.02Z" fill="#3F3936"/>
<path fill-rule="evenodd" clip-rule="evenodd" d="M46.4805 130.316C46.7045 135.307 47.2749 140.25 48.1914 145.145C47.8112 145.145 47.6211 145.334 47.6211 145.715C47.2409 145.525 46.8607 145.334 46.4805 145.145C46.4805 140.202 46.4805 135.259 46.4805 130.316Z" fill="#DEAE81"/>
<path fill-rule="evenodd" clip-rule="evenodd" d="M199.895 137.73C199.732 139.748 200.683 140.794 202.746 140.867C201.366 141.259 200.13 140.974 199.039 140.012C198.841 139.076 199.126 138.316 199.895 137.73Z" fill="#7B6B55"/>
<path fill-rule="evenodd" clip-rule="evenodd" d="M224.418 136.02C225.609 136.223 226.75 136.603 227.84 137.16C227.163 137.191 226.403 137.381 225.559 137.73C226.342 139.375 225.962 140.706 224.418 141.723C225.11 140.039 225.11 138.138 224.418 136.02Z" fill="#9C8766"/>
<path fill-rule="evenodd" clip-rule="evenodd" d="M194.762 143.434C197.46 143.364 200.122 143.649 202.746 144.289C203.275 144.51 203.656 144.891 203.887 145.43C201.394 149.471 198.637 149.566 195.617 145.715C195.166 145.005 194.881 144.245 194.762 143.434Z" fill="#FFFDFA"/>
<path fill-rule="evenodd" clip-rule="evenodd" d="M41.918 143.434C41.918 143.814 41.918 144.194 41.918 144.574C37.2637 144.695 32.5111 144.98 27.6602 145.43C32.3343 144.364 37.0869 143.698 41.918 143.434Z" fill="#8B5634"/>
<path fill-rule="evenodd" clip-rule="evenodd" d="M47.6211 145.715C47.6211 145.334 47.8112 145.145 48.1914 145.145C57.0009 146.137 65.7456 147.563 74.4258 149.422C76.9123 149.9 79.1936 150.755 81.2695 151.988C81.0796 151.988 80.8891 151.988 80.6992 151.988C69.8194 149.161 58.7935 147.07 47.6211 145.715Z" fill="#7E4F32"/>
<path fill-rule="evenodd" clip-rule="evenodd" d="M228.41 147.426C228.609 146.164 229.084 145.023 229.836 144.004C230.044 145.478 229.568 146.619 228.41 147.426Z" fill="#979494"/>
<path fill-rule="evenodd" clip-rule="evenodd" d="M228.41 147.426C228.432 148.142 228.147 148.712 227.555 149.137C227.221 148.282 227.506 147.712 228.41 147.426Z" fill="#C5C4C4"/>
<path fill-rule="evenodd" clip-rule="evenodd" d="M224.418 150.848C225.648 151.163 225.553 151.733 224.133 152.559C223.865 151.944 223.96 151.374 224.418 150.848Z" fill="#BBB9B9"/>
<path opacity="0.971" fill-rule="evenodd" clip-rule="evenodd" d="M80.6992 151.988C80.8891 151.988 81.0796 151.988 81.2695 151.988C86.7999 153.167 92.1226 154.972 97.2383 157.406C99.6307 159.134 101.722 161.13 103.512 163.395C105.048 166.012 105.618 168.768 105.223 171.664C104.682 171.94 104.112 172.034 103.512 171.949C103.609 172.703 103.419 173.369 102.941 173.945C100.09 175.556 97.7139 175.08 95.8125 172.52C95.2142 173.1 94.5487 173.195 93.8164 172.805C92.0838 171.263 90.5628 169.552 89.2539 167.672C85.8942 166.078 82.4723 164.843 78.9883 163.965C79.189 159.898 79.7593 155.906 80.6992 151.988Z" fill="#F7AA89"/>
<path fill-rule="evenodd" clip-rule="evenodd" d="M212.441 158.832C213.041 158.747 213.612 158.842 214.152 159.117C210.755 160.869 207.143 161.629 203.316 161.398C206.571 161.062 209.613 160.206 212.441 158.832Z" fill="#716350"/>
<path fill-rule="evenodd" clip-rule="evenodd" d="M100.66 165.676C101.919 166.484 102.395 167.625 102.086 169.098C101.446 168.01 100.971 166.869 100.66 165.676Z" fill="#906A5A"/>
<path opacity="0.991" fill-rule="evenodd" clip-rule="evenodd" d="M228.98 171.379C236.392 172.044 243.425 174.04 250.082 177.367C251.342 178.435 252.387 179.671 253.219 181.074C259.153 196.312 264.001 211.9 267.762 227.84C266.766 228.839 265.625 229.599 264.34 230.121C258.832 233.161 252.939 235.062 246.66 235.824C245.578 234.815 244.913 233.485 244.664 231.832C245.006 244.959 245.671 258.077 246.66 271.184C214.342 271.944 182.025 271.944 149.707 271.184C176.892 271.184 204.077 271.184 231.262 271.184C231.262 270.233 231.262 269.283 231.262 268.332C233.54 249.554 235.345 230.734 236.68 211.871C236.252 211.514 235.776 211.229 235.254 211.016C218.336 210.73 201.417 210.635 184.496 210.73C185.29 205.593 185.955 200.46 186.492 195.332C185.192 200.406 184.146 205.539 183.355 210.73C176.131 210.73 168.908 210.73 161.684 210.73C167.759 200.1 174.128 189.645 180.789 179.363C185.698 175.92 191.116 173.638 197.043 172.52C199.816 174.572 202.857 176.188 206.168 177.367C212.194 179.416 218.088 179.036 223.848 176.227C226.219 175.28 227.93 173.665 228.98 171.379Z" fill="#32B0CF"/>
<path opacity="0.812" fill-rule="evenodd" clip-rule="evenodd" d="M157.691 177.082C159.077 177.13 160.217 177.701 161.113 178.793C162.109 177.45 163.44 176.88 165.105 177.082C165.307 178.748 164.737 180.078 163.394 181.074C164.085 181.858 164.655 182.713 165.105 183.641C165.041 184.371 164.661 184.846 163.965 185.066C163.024 184.412 162.169 183.651 161.398 182.785C160.733 183.451 160.068 184.116 159.402 184.781C157.102 185.031 156.627 184.176 157.977 182.215C158.452 181.74 158.927 181.264 159.402 180.789C157.763 179.875 157.193 178.64 157.691 177.082Z" fill="#32B0CF"/>
<path opacity="0.969" fill-rule="evenodd" clip-rule="evenodd" d="M144.574 210.73C143.877 211.749 143.497 212.89 143.434 214.152C144.219 220.219 144.789 226.303 145.145 232.402C140.633 228.749 136.355 224.757 132.313 220.426C127.992 214.742 123.335 209.324 118.34 204.172C110.86 200.305 105.062 194.696 100.945 187.348C99.4511 184.466 100.307 183.42 103.512 184.211C106.694 186.85 110.305 188.371 114.348 188.773C113.471 188.14 113.091 187.285 113.207 186.207C114.176 186.116 115.127 186.21 116.059 186.492C118.246 187.681 120.338 189.011 122.332 190.484C125.165 193.889 128.207 197.12 131.457 200.18C136.078 203.434 140.45 206.95 144.574 210.73Z" fill="#FEAF8C"/>
<path fill-rule="evenodd" clip-rule="evenodd" d="M184.496 210.73C184.116 210.73 183.736 210.73 183.355 210.73C184.146 205.539 185.192 200.406 186.492 195.332C185.955 200.46 185.29 205.593 184.496 210.73Z" fill="#826434"/>
<path opacity="0.858" fill-rule="evenodd" clip-rule="evenodd" d="M83.5508 199.324C84.5197 199.233 85.4705 199.328 86.4023 199.609C87.0782 200.381 87.839 201.047 88.6836 201.605C89.8379 200.062 91.3584 199.302 93.2461 199.324C93.2683 201.212 92.5081 202.732 90.9648 203.887C91.9692 204.886 92.7294 206.027 93.2461 207.309C93.2837 208.316 92.8081 208.886 91.8203 209.02C90.5194 208.292 89.3788 207.341 88.3984 206.168C87.543 207.023 86.6875 207.879 85.832 208.734C84.0259 209.209 83.3609 208.544 83.8359 206.738C84.6914 205.883 85.5469 205.027 86.4023 204.172C84.5705 203.02 83.6204 201.404 83.5508 199.324Z" fill="#32B0CF"/>
<path fill-rule="evenodd" clip-rule="evenodd" d="M239.246 198.754C241.451 207.611 242.972 216.547 243.809 225.559C241.856 216.697 240.335 207.761 239.246 198.754Z" fill="#7D6034"/>
<path opacity="0.998" fill-rule="evenodd" clip-rule="evenodd" d="M144.574 210.73C150.277 210.73 155.98 210.73 161.684 210.73C168.908 210.73 176.131 210.73 183.355 210.73C183.736 210.73 184.116 210.73 184.496 210.73C201.417 210.635 218.336 210.73 235.254 211.016C235.776 211.229 236.252 211.514 236.68 211.871C235.345 230.734 233.54 249.554 231.262 268.332C203.887 268.332 176.512 268.332 149.137 268.332C147.545 256.411 146.214 244.434 145.145 232.402C144.789 226.303 144.219 220.219 143.434 214.152C143.497 212.89 143.877 211.749 144.574 210.73Z" fill="black"/>
<path fill-rule="evenodd" clip-rule="evenodd" d="M186.777 230.121C197.485 229.511 201.192 234.263 197.898 244.379C192.114 250.015 186.792 249.635 181.93 243.238C180.047 237.509 181.663 233.136 186.777 230.121Z" fill="black"/>
<path opacity="0.981" fill-rule="evenodd" clip-rule="evenodd" d="M264.34 230.121C266.928 243.823 269.59 257.51 272.324 271.184C266.107 271.936 259.833 271.936 253.504 271.184C251.149 259.41 248.868 247.624 246.66 235.824C252.939 235.062 258.832 233.161 264.34 230.121Z" fill="#FEAF8C"/>
<path opacity="0.999" fill-rule="evenodd" clip-rule="evenodd" d="M149.137 268.332C176.512 268.332 203.887 268.332 231.262 268.332C231.262 269.283 231.262 270.233 231.262 271.184C204.077 271.184 176.892 271.184 149.707 271.184C149.517 271.184 149.327 271.184 149.137 271.184C148.376 270.233 148.376 269.283 149.137 268.332Z" fill="#AAEDE9"/>
<path opacity="0.915" fill-rule="evenodd" clip-rule="evenodd" d="M149.137 271.184C149.327 271.184 149.517 271.184 149.707 271.184C182.025 271.944 214.342 271.944 246.66 271.184C248.941 271.184 251.223 271.184 253.504 271.184C259.833 271.936 266.107 271.936 272.324 271.184C273.857 271.09 275.378 271.185 276.887 271.469C277.389 272.242 277.579 273.098 277.457 274.035C223.087 274.13 168.717 274.035 114.348 273.75C113.657 273.115 113.657 272.45 114.348 271.754C125.938 271.184 137.534 270.994 149.137 271.184Z" fill="#383232"/>
</svg>
