<svg width="60" height="60" viewBox="0 0 60 60" fill="none" xmlns="http://www.w3.org/2000/svg">
<path fill-rule="evenodd" clip-rule="evenodd" d="M30 13.1919C34.5193 13.1919 38.2054 16.7591 38.3963 21.2314L38.4041 21.596V26.6384C41.1889 26.6384 43.4465 28.896 43.4465 31.6809V41.7657C43.4465 44.5506 41.1889 46.8082 38.4041 46.8082H21.5959C18.811 46.8082 16.5535 44.5506 16.5535 41.7657V31.6809C16.5535 28.896 18.811 26.6384 21.5959 26.6384V21.596C21.5959 16.9545 25.3585 13.1919 30 13.1919ZM38.4041 30H21.5959C20.6676 30 19.9151 30.7526 19.9151 31.6808V41.7657C19.9151 42.694 20.6676 43.4466 21.5959 43.4466H38.4041C39.3323 43.4466 40.0849 42.694 40.0849 41.7657V31.6808C40.0849 30.7526 39.3323 30 38.4041 30ZM30.2963 16.5621L30 16.5535C27.3146 16.5535 25.1195 18.6527 24.9661 21.2997L24.9576 21.596V26.6384H35.0424V21.596C35.0424 18.9106 32.9432 16.7155 30.2963 16.5621L30 16.5535L30.2963 16.5621Z" fill="black"/>
<circle cx="30" cy="30" r="29.5" stroke="black"/>
</svg>
