<svg width="60" height="60" viewBox="0 0 60 60" fill="none" xmlns="http://www.w3.org/2000/svg">
<path d="M38.4041 45.4966H21.5959C15.4609 45.4966 11.9312 41.9669 11.9312 35.8319V24.0662C11.9312 17.9313 15.4609 14.4016 21.5959 14.4016H38.4041C44.539 14.4016 48.0687 17.9313 48.0687 24.0662V35.8319C48.0687 41.9669 44.539 45.4966 38.4041 45.4966ZM21.5959 16.9228C16.7888 16.9228 14.4524 19.2591 14.4524 24.0662V35.8319C14.4524 40.6391 16.7888 42.9754 21.5959 42.9754H38.4041C43.2112 42.9754 45.5475 40.6391 45.5475 35.8319V24.0662C45.5475 19.2591 43.2112 16.9228 38.4041 16.9228H21.5959Z" fill="black"/>
<path d="M29.9996 31.4113C28.5877 31.4113 27.159 30.9743 26.0665 30.0835L20.8056 25.8815C20.2677 25.4444 20.1669 24.6545 20.6039 24.1166C21.0409 23.5787 21.8309 23.4779 22.3687 23.9149L27.6297 28.1169C28.9071 29.1422 31.0753 29.1422 32.3528 28.1169L37.6137 23.9149C38.1516 23.4779 38.9584 23.5619 39.3786 24.1166C39.8156 24.6545 39.7316 25.4613 39.1769 25.8815L33.9159 30.0835C32.8402 30.9743 31.4115 31.4113 29.9996 31.4113Z" fill="black"/>
<circle cx="30" cy="30" r="29.5" stroke="black"/>
</svg>
