<svg width="292" height="292" viewBox="0 0 292 292" fill="none" xmlns="http://www.w3.org/2000/svg">
<path opacity="0.815" fill-rule="evenodd" clip-rule="evenodd" d="M96.0977 36.2148C97.7636 36.0129 99.0941 36.5832 100.09 37.9258C100.743 37.558 101.314 37.0827 101.801 36.5C103.002 36.0128 103.763 36.3931 104.082 37.6406C103.632 38.5677 103.062 39.4231 102.371 40.207C103.413 41.3404 103.983 42.6711 104.082 44.1992C102.416 44.4012 101.086 43.8308 100.09 42.4883C99.0941 43.8308 97.7636 44.4012 96.0977 44.1992C95.8958 42.5336 96.4661 41.2028 97.8086 40.207C96.4661 39.2112 95.8958 37.8805 96.0977 36.2148Z" fill="#32B0CF"/>
<path opacity="0.99" fill-rule="evenodd" clip-rule="evenodd" d="M46.4805 40.207C52.2046 40.0858 57.9079 40.371 63.5899 41.0625C82.3754 46.7784 90.4545 59.4203 87.8282 78.9883C87.0828 82.9383 85.5618 86.5506 83.2657 89.8242C80.7734 92.694 78.3023 95.5456 75.8516 98.3789C75.717 99.6701 75.4319 100.906 74.9962 102.086C75.4399 105.478 76.2001 108.804 77.2774 112.066C71.2589 111.753 66.8863 108.901 64.1602 103.512C63.5899 103.322 63.0196 103.131 62.4493 102.941C56.3776 103.567 50.2943 103.662 44.1993 103.227C24.2051 98.8101 15.1752 86.3584 17.1094 65.8711C21.1886 50.6648 30.979 42.1101 46.4805 40.207Z" fill="#126999"/>
<path opacity="0.985" fill-rule="evenodd" clip-rule="evenodd" d="M179.363 90.9648C178.363 92.4739 177.793 94.1848 177.652 96.0977C183.677 96.1091 183.677 96.4895 177.652 97.2383C177.182 98.2991 176.611 99.2492 175.941 100.09C175.138 95.407 174.282 90.6546 173.375 85.832C172.476 81.7001 170.099 78.7539 166.246 76.9922C161.085 71.3313 156.998 64.9626 153.984 57.8867C148.5 55.1622 143.463 55.8276 138.871 59.8828C133.527 65.416 128.394 71.1191 123.473 76.9922C119.908 79.1069 116.391 81.2929 112.922 83.5508C111.602 85.4197 110.841 87.511 110.641 89.8242C110.543 94.1078 110.258 98.2905 109.785 102.371C109 101.351 108.429 100.21 108.074 98.9492C108.074 98.5688 107.884 98.3789 107.504 98.3789C107.504 97.8086 107.504 97.2383 107.504 96.668C103.44 96.7461 103.25 96.3657 106.934 95.5273C106.535 93.9248 105.965 92.4037 105.223 90.9648C103.337 83.8605 102.672 76.6363 103.227 69.293C105.111 56.4889 112.24 48.2193 124.613 44.4844C136.394 41.7457 147.23 43.8369 157.121 50.7578C163.578 50.5019 169.661 51.8326 175.371 54.75C180.034 58.4696 182.125 63.3172 181.645 69.293C181.259 76.5633 180.499 83.7869 179.363 90.9648Z" fill="#393434"/>
<path fill-rule="evenodd" clip-rule="evenodd" d="M124.613 53.3242C124.626 52.0123 125.196 51.3469 126.324 51.3281C125.946 52.1941 125.376 52.8595 124.613 53.3242Z" fill="#B4B2B2"/>
<path opacity="0.826" fill-rule="evenodd" clip-rule="evenodd" d="M198.754 53.3242C200.834 53.3936 202.45 54.3441 203.602 56.1758C204.457 55.3203 205.313 54.4648 206.168 53.6094C207.974 53.1341 208.639 53.7995 208.164 55.6055C207.309 56.4609 206.453 57.3164 205.598 58.1719C206.453 59.0273 207.309 59.8828 208.164 60.7383C208.879 62.7977 208.214 63.6531 206.168 63.3047C205.303 62.3437 204.352 61.4882 203.317 60.7383C202.281 61.4882 201.33 62.3437 200.465 63.3047C198.659 63.7798 197.994 63.1148 198.469 61.3086C199.43 60.4434 200.285 59.4927 201.035 58.457C200.285 57.4213 199.43 56.4709 198.469 55.6055C198.139 54.7908 198.234 54.0304 198.754 53.3242Z" fill="#32B0CF"/>
<path fill-rule="evenodd" clip-rule="evenodd" d="M133.168 55.6054C137.537 53.041 142.29 52.1856 147.426 53.039C142.539 53.45 137.787 54.3055 133.168 55.6054Z" fill="#B0AEAE"/>
<path fill-rule="evenodd" clip-rule="evenodd" d="M133.168 55.6055C132.898 56.4075 132.328 56.7878 131.457 56.7461C131.727 55.9441 132.297 55.5639 133.168 55.6055Z" fill="#BBB9B9"/>
<path fill-rule="evenodd" clip-rule="evenodd" d="M124.613 53.3242C123.948 55.4041 122.712 57.1151 120.906 58.457C120.526 58.0766 120.526 57.6968 120.906 57.3164C122.151 55.9436 123.387 54.6129 124.613 53.3242Z" fill="#BFBDBD"/>
<path opacity="0.996" fill-rule="evenodd" clip-rule="evenodd" d="M175.941 100.09C175.294 102.413 174.533 104.695 173.66 106.934C169.758 117.68 162.534 125.285 151.988 129.746C151.854 129.406 151.569 129.216 151.133 129.176C144.976 130.837 138.893 130.647 132.883 128.605C132.447 128.645 132.161 128.835 132.027 129.176C122.41 124.312 115.566 116.898 111.496 106.934C111.149 105.321 110.579 103.801 109.785 102.371C110.258 98.2905 110.543 94.1079 110.641 89.8242C110.841 87.511 111.602 85.4197 112.922 83.5508C116.391 81.2929 119.908 79.1069 123.473 76.9922C128.394 71.1191 133.527 65.416 138.871 59.8828C143.463 55.8276 148.5 55.1622 153.984 57.8867C156.998 64.9626 161.085 71.3313 166.246 76.9922C170.099 78.7539 172.476 81.7001 173.375 85.8321C174.282 90.6546 175.138 95.407 175.941 100.09Z" fill="#FEAF8C"/>
<path fill-rule="evenodd" clip-rule="evenodd" d="M131.457 56.7461C130.887 57.6968 130.126 58.457 129.176 59.0273C129.366 57.6968 130.126 56.9362 131.457 56.7461Z" fill="#C6C5C5"/>
<path opacity="0.926" fill-rule="evenodd" clip-rule="evenodd" d="M224.988 59.0273C229.477 58.2757 233.375 59.4163 236.68 62.4492C248.953 83.1932 260.929 104.105 272.609 125.184C274.027 132.331 271.27 136.989 264.34 139.156C240.387 139.537 216.434 139.537 192.48 139.156C184.327 136.439 181.76 131.021 184.781 122.902C196.187 103.131 207.594 83.3609 219 63.5898C220.677 61.5726 222.673 60.0522 224.988 59.0273ZM226.129 64.1602C229.117 63.6115 231.494 64.5622 233.258 67.0117C244.664 86.7827 256.07 106.553 267.476 126.324C268.313 129.31 267.457 131.686 264.91 133.453C240.991 134.394 217.037 134.584 193.051 134.023C188.658 131.99 187.613 128.853 189.914 124.613C201.13 105.223 212.346 85.832 223.562 66.4414C224.359 65.546 225.215 64.7852 226.129 64.1602Z" fill="#126999"/>
<path fill-rule="evenodd" clip-rule="evenodd" d="M159.973 58.457C160.885 59.1979 161.17 60.148 160.828 61.3086C160.253 60.4389 159.968 59.4882 159.973 58.457Z" fill="#BEBCBC"/>
<path fill-rule="evenodd" clip-rule="evenodd" d="M129.176 59.0273C128.845 60.31 128.085 61.2601 126.895 61.8789C127.225 60.5963 127.986 59.6461 129.176 59.0273Z" fill="#B9B7B7"/>
<path fill-rule="evenodd" clip-rule="evenodd" d="M171.379 63.0195C170.26 61.9217 169.785 60.5911 169.953 59.0273C170.822 60.2073 171.297 61.5384 171.379 63.0195Z" fill="#B4B2B2"/>
<path fill-rule="evenodd" clip-rule="evenodd" d="M117.199 60.7383C117.621 60.6636 118.001 60.7588 118.34 61.0234C117.366 62.5524 116.035 63.3132 114.348 63.3047C115.556 62.7064 116.506 61.8509 117.199 60.7383Z" fill="#C3C2C2"/>
<path fill-rule="evenodd" clip-rule="evenodd" d="M171.379 63.0195C172.42 63.9588 173.181 65.0995 173.66 66.4414C172.336 65.6989 171.576 64.5582 171.379 63.0195Z" fill="#C2C0C0"/>
<path fill-rule="evenodd" clip-rule="evenodd" d="M126.895 61.8789C126.362 63.5157 125.412 64.8468 124.043 65.8711C124.575 64.2343 125.526 62.9032 126.895 61.8789Z" fill="#BEBCBC"/>
<path fill-rule="evenodd" clip-rule="evenodd" d="M111.496 64.1601C112.549 64.0084 112.93 64.1989 112.637 64.7304C111.469 65.4547 110.328 65.6447 109.215 65.3008C110.041 64.9175 110.801 64.5371 111.496 64.1601Z" fill="#A7A5A5"/>
<path fill-rule="evenodd" clip-rule="evenodd" d="M31.6523 66.4414C37.7152 66.9718 39.5212 70.0138 37.0703 75.5664C33.073 78.3883 30.0314 77.6281 27.9453 73.2852C27.5682 70.1422 28.8039 67.8609 31.6523 66.4414Z" fill="#15CDC3"/>
<path fill-rule="evenodd" clip-rule="evenodd" d="M51.043 66.4414C56.1456 66.3975 58.3316 68.8687 57.6016 73.8555C55.6265 77.3703 52.87 78.1306 49.3321 76.1367C46.0023 72.2518 46.5727 69.0198 51.043 66.4414Z" fill="#17CEC3"/>
<path fill-rule="evenodd" clip-rule="evenodd" d="M70.4336 66.4414C75.5835 66.361 77.7695 68.8322 76.9922 73.8555C74.0454 78.1779 70.814 78.3678 67.2969 74.4258C66.1705 70.8197 67.2159 68.1581 70.4336 66.4414Z" fill="#12CDC2"/>
<path fill-rule="evenodd" clip-rule="evenodd" d="M124.043 65.8711C123.712 67.1537 122.952 68.1039 121.762 68.7227C122.093 67.44 122.853 66.4899 124.043 65.8711Z" fill="#BAB8B8"/>
<path fill-rule="evenodd" clip-rule="evenodd" d="M173.66 66.4414C175.286 67.5849 176.997 68.6303 178.793 69.5781C177.773 69.8747 176.822 69.6848 175.941 69.0078C174.724 68.5082 173.963 67.6528 173.66 66.4414Z" fill="#BDBBBB"/>
<path fill-rule="evenodd" clip-rule="evenodd" d="M121.762 68.7227C121.191 70.4336 120.051 71.5742 118.34 72.1445C119.291 70.814 120.431 69.6734 121.762 68.7227Z" fill="#AAA8A8"/>
<path fill-rule="evenodd" clip-rule="evenodd" d="M118.34 72.1445C117.597 73.4688 116.457 74.229 114.918 74.4258C115.857 73.3844 116.998 72.6236 118.34 72.1445Z" fill="#C2C1C1"/>
<path fill-rule="evenodd" clip-rule="evenodd" d="M114.918 74.4258C114.68 74.8375 114.3 75.1227 113.777 75.2812C112.256 75.6616 110.736 75.6616 109.215 75.2812C111.128 75.0218 113.029 74.7366 114.918 74.4258Z" fill="#BCBABA"/>
<path fill-rule="evenodd" clip-rule="evenodd" d="M162.254 63.5898C164.56 67.1389 167.221 70.4655 170.238 73.5703C172.004 74.8336 173.905 75.7837 175.941 76.4219C171.862 75.8487 168.535 73.8526 165.961 70.4336C164.349 68.3491 163.113 66.0679 162.254 63.5898Z" fill="#B9B7B7"/>
<path opacity="0.959" fill-rule="evenodd" clip-rule="evenodd" d="M225.559 77.8477C227.9 77.696 230.181 77.9811 232.402 78.7031C233.246 79.9846 233.627 81.4104 233.543 82.9805C233.001 94.7746 232.336 106.561 231.547 118.34C229.291 120.615 227.01 120.615 224.703 118.34C223.795 105.424 223.414 92.4967 223.562 79.5586C224.215 78.9107 224.881 78.3404 225.559 77.8477Z" fill="#FD1515"/>
<path fill-rule="evenodd" clip-rule="evenodd" d="M122.902 88.1133C125.192 88.0186 127.473 88.1139 129.746 88.3984C130.623 89.0315 131.002 89.887 130.887 90.9648C127.153 90.808 123.446 90.9979 119.766 91.5352C119.48 91.3452 119.195 91.1548 118.91 90.9648C120.179 89.8619 121.51 88.9112 122.902 88.1133Z" fill="#403937"/>
<path fill-rule="evenodd" clip-rule="evenodd" d="M154.84 88.1133C159.158 87.4198 162.96 88.4652 166.246 91.25C162.09 91.0516 157.908 90.9563 153.699 90.9649C153.622 89.7935 154.003 88.8427 154.84 88.1133Z" fill="#423B38"/>
<path opacity="0.981" fill-rule="evenodd" clip-rule="evenodd" d="M179.363 90.9649C181.281 90.7196 182.896 91.2899 184.211 92.6758C185.979 97.6797 185.123 102.147 181.645 106.078C179.1 107.548 176.439 107.834 173.66 106.934C174.533 104.695 175.294 102.413 175.941 100.09C176.612 99.2492 177.182 98.2991 177.652 97.2383C183.677 96.4895 183.677 96.1091 177.652 96.0977C177.793 94.1848 178.364 92.4739 179.363 90.9649Z" fill="#FEAF8C"/>
<path opacity="0.959" fill-rule="evenodd" clip-rule="evenodd" d="M105.223 90.9648C105.965 92.4037 106.535 93.9248 106.934 95.5273C103.25 96.3657 103.44 96.7461 107.504 96.668C107.504 97.2383 107.504 97.8086 107.504 98.3789C106.135 99.5657 106.041 100.896 107.219 102.371C107.592 103.053 107.877 103.053 108.074 102.371C107.359 101.149 107.359 100.008 108.074 98.9492C108.43 100.21 109 101.351 109.785 102.371C110.579 103.801 111.149 105.321 111.496 106.934C106.164 107.803 102.836 105.522 101.516 100.09C100.38 95.9705 101.615 92.929 105.223 90.9648Z" fill="#FEAF8C"/>
<path fill-rule="evenodd" clip-rule="evenodd" d="M125.754 94.957C130.17 94.6992 131.501 96.5054 129.746 100.375C125.888 101.654 124.272 100.228 124.899 96.0976C125.307 95.7874 125.593 95.407 125.754 94.957Z" fill="#413A37"/>
<path fill-rule="evenodd" clip-rule="evenodd" d="M156.551 95.5273C160.583 96.0446 161.534 98.0407 159.402 101.516C156.073 102.36 154.457 101.124 154.555 97.8086C154.948 96.7535 155.613 95.9927 156.551 95.5273Z" fill="#403A37"/>
<path fill-rule="evenodd" clip-rule="evenodd" d="M107.504 98.3789C107.884 98.3789 108.074 98.5688 108.074 98.9492C107.359 100.008 107.359 101.149 108.074 102.371C107.877 103.053 107.592 103.053 107.219 102.371C106.04 100.896 106.135 99.5657 107.504 98.3789Z" fill="#9D7F52"/>
<path fill-rule="evenodd" clip-rule="evenodd" d="M179.363 98.9492C180.237 100.922 179.762 102.633 177.938 104.082C178.694 102.534 179.17 100.823 179.363 98.9492Z" fill="#93774F"/>
<path fill-rule="evenodd" clip-rule="evenodd" d="M141.152 97.2383C141.493 97.3723 141.683 97.6575 141.723 98.0938C140.993 99.8914 140.518 101.698 140.297 103.512C142.051 103.961 143.857 104.246 145.715 104.367C143.667 104.817 141.671 104.722 139.727 104.082C139.776 101.739 140.251 99.4574 141.152 97.2383Z" fill="#766753"/>
<path fill-rule="evenodd" clip-rule="evenodd" d="M145.715 110.355C146.136 110.281 146.517 110.376 146.855 110.641C146.285 111.971 145.334 112.922 144.004 113.492C141.989 114.007 140.088 113.817 138.301 112.922C139.971 113.182 141.682 113.182 143.434 112.922C144.717 112.495 145.478 111.64 145.715 110.355Z" fill="#7B6B55"/>
<path opacity="0.941" fill-rule="evenodd" clip-rule="evenodd" d="M226.129 121.191C231.668 120.74 233.854 123.211 232.688 128.605C231.002 130.76 228.816 131.425 226.129 130.602C223.523 129.152 222.668 126.966 223.563 124.043C224.147 122.796 225.003 121.845 226.129 121.191Z" fill="#FF0000"/>
<path opacity="0.988" fill-rule="evenodd" clip-rule="evenodd" d="M132.027 129.176C138.594 131.988 145.248 132.178 151.988 129.746C151.731 135.707 154.202 139.89 159.402 142.293C152.829 148.456 145.226 150.072 136.59 147.141C132.593 145.506 128.981 143.319 125.754 140.582C127.192 139.716 128.617 138.765 130.031 137.73C131.241 135.008 131.906 132.156 132.027 129.176Z" fill="#FEAF8C"/>
<path fill-rule="evenodd" clip-rule="evenodd" d="M132.027 129.176C132.161 128.835 132.447 128.645 132.883 128.605C138.893 130.647 144.976 130.837 151.133 129.176C151.569 129.216 151.854 129.406 151.988 129.746C145.248 132.178 138.594 131.988 132.027 129.176Z" fill="#8B795D"/>
<path opacity="0.823" fill-rule="evenodd" clip-rule="evenodd" d="M69.2929 134.309C69.8929 134.224 70.4632 134.318 71.0039 134.594C71.869 135.555 72.8198 136.41 73.8554 137.16C74.8911 136.41 75.8418 135.555 76.707 134.594C78.5132 134.119 79.1782 134.784 78.7031 136.59C77.7421 137.455 76.8867 138.406 76.1367 139.441C76.8867 140.477 77.7421 141.428 78.7031 142.293C79.0516 144.339 78.1961 145.004 76.1367 144.289C75.2812 143.434 74.4258 142.578 73.5703 141.723C72.7148 142.578 71.8593 143.434 71.0039 144.289C69.1977 144.764 68.5327 144.099 69.0078 142.293C69.8633 141.437 70.7187 140.582 71.5742 139.727C70.7187 138.871 69.8633 138.016 69.0078 137.16C68.6428 136.154 68.738 135.203 69.2929 134.309Z" fill="#32B0CF"/>
<path opacity="0.994" fill-rule="evenodd" clip-rule="evenodd" d="M125.754 140.582C128.981 143.319 132.593 145.506 136.59 147.141C145.226 150.072 152.829 148.456 159.402 142.293C169.472 144.159 178.787 147.866 187.348 153.414C188.773 154.84 190.199 156.266 191.625 157.691C196.955 173.017 202.563 188.225 208.449 203.316C204.474 211.038 202.763 219.213 203.316 227.84C203.423 219.22 205.514 211.141 209.59 203.602C209.46 203.374 209.269 203.279 209.02 203.316C214.92 194.551 220.814 185.806 226.699 177.082C232.666 179.115 238.37 181.776 243.809 185.066C239.06 203.357 231.361 220.466 220.711 236.395C214.013 244.811 206.788 245.381 199.039 238.105C195.02 233.517 191.218 228.765 187.633 223.848C186.822 232.15 186.537 240.42 186.777 248.656C155.232 256.137 123.769 255.852 92.3906 247.801C92.1055 247.611 91.8203 247.42 91.5352 247.23C93.164 239.322 94.0194 231.338 94.1016 223.277C89.8596 230.159 84.6315 236.147 78.418 241.242C74.4714 243.314 70.6691 243.123 67.0117 240.672C61.1398 234.978 56.8626 228.23 54.1797 220.426C49.1075 207.532 45.4005 194.414 43.0586 181.074C48.7243 178.173 54.6176 176.082 60.7383 174.801C65.4793 182.757 69.9465 190.931 74.1406 199.324C79.1149 186.463 83.297 173.345 86.6875 159.973C89.6645 154.524 93.9419 150.437 99.5195 147.711C108.273 145.333 117.017 142.956 125.754 140.582Z" fill="#32B0CF"/>
<path opacity="0.97" fill-rule="evenodd" clip-rule="evenodd" d="M60.7383 174.801C54.6176 176.082 48.7243 178.173 43.0586 181.074C40.0849 174.009 35.3323 168.401 28.8008 164.25C22.917 158.944 18.9248 152.48 16.8242 144.859C16.8578 144.04 17.0479 143.28 17.3945 142.578C18.8299 142.432 20.1607 142.812 21.3867 143.719C25.7235 147.597 30.6663 150.258 36.2148 151.703C35.2399 150.61 34.4795 149.375 33.9336 147.996C34.5039 147.806 35.0742 147.616 35.6445 147.426C37.9151 148.073 40.0062 149.118 41.918 150.562C46.4074 155.241 50.6848 160.088 54.75 165.105C57.0444 168.178 59.0405 171.41 60.7383 174.801Z" fill="#FEAF8C"/>
<path opacity="0.97" fill-rule="evenodd" clip-rule="evenodd" d="M243.809 185.066C238.37 181.776 232.666 179.115 226.699 177.082C231.857 169.925 237.75 163.366 244.379 157.406C247.683 154.518 251.485 152.713 255.785 151.988C255.917 153.862 255.156 155.288 253.504 156.266C256.047 156.182 258.518 155.612 260.918 154.555C275.658 145.902 277.844 148.468 267.477 162.254C262.045 167.484 256.247 172.237 250.082 176.512C247.302 178.904 245.21 181.756 243.809 185.066Z" fill="#FEAF8C"/>
<path opacity="0.815" fill-rule="evenodd" clip-rule="evenodd" d="M202.176 151.418C203.842 151.216 205.172 151.786 206.168 153.129C207.164 151.786 208.494 151.216 210.16 151.418C210.362 153.084 209.792 154.414 208.449 155.41C209.14 156.194 209.71 157.049 210.16 157.977C210.096 158.707 209.715 159.182 209.02 159.402C208.079 158.748 207.224 157.987 206.453 157.121C205.416 158.693 204.085 159.264 202.461 158.832C202.308 157.247 202.973 156.011 204.457 155.125C203.075 154.229 202.315 152.994 202.176 151.418Z" fill="#32B0CF"/>
<path fill-rule="evenodd" clip-rule="evenodd" d="M100.09 172.52C99.5475 171.71 99.3576 170.76 99.5195 169.668C99.6923 164.884 99.5024 160.131 98.9492 155.41C99.1465 154.728 99.4317 154.728 99.8047 155.41C100.09 161.11 100.185 166.813 100.09 172.52Z" fill="#684632"/>
<path fill-rule="evenodd" clip-rule="evenodd" d="M99.5195 169.668C99.3575 170.76 99.5474 171.71 100.09 172.52C100.243 173.431 100.052 174.192 99.5195 174.801C99.6176 174.235 99.4271 173.855 98.9492 173.66C98.7769 172.201 98.9674 170.87 99.5195 169.668Z" fill="#AD6230"/>
<path fill-rule="evenodd" clip-rule="evenodd" d="M184.496 160.543C184.53 160.233 184.72 160.043 185.066 159.973C185.636 168.519 185.827 177.073 185.637 185.637C185.256 177.272 184.876 168.908 184.496 160.543Z" fill="#CB6E30"/>
<path fill-rule="evenodd" clip-rule="evenodd" d="M98.9492 173.66C99.4271 173.855 99.6176 174.235 99.5195 174.801C98.6874 190.873 96.9765 206.842 94.3867 222.707C94.1968 222.327 94.0063 221.947 93.8164 221.566C96.0754 205.654 97.7864 189.685 98.9492 173.66Z" fill="#835132"/>
<path fill-rule="evenodd" clip-rule="evenodd" d="M184.496 160.543C184.876 168.908 185.256 177.272 185.637 185.637C185.637 192.291 185.637 198.944 185.637 205.598C185.447 205.598 185.256 205.598 185.066 205.598C184.6 190.584 184.41 175.566 184.496 160.543Z" fill="#825131"/>
<path fill-rule="evenodd" clip-rule="evenodd" d="M74.9961 202.176C74.2274 201.59 73.9422 200.83 74.1407 199.895C74.8182 200.501 75.1034 201.262 74.9961 202.176Z" fill="#6C4832"/>
<path fill-rule="evenodd" clip-rule="evenodd" d="M74.9961 202.176C75.8122 202.906 76.1926 203.856 76.1367 205.027C75.3206 204.297 74.9402 203.347 74.9961 202.176Z" fill="#774C32"/>
<path fill-rule="evenodd" clip-rule="evenodd" d="M76.1367 205.027C79.9088 211.815 81.1441 219.039 79.8438 226.699C79.6538 223.467 79.4634 220.236 79.2734 217.004C78.3147 212.979 77.2694 208.987 76.1367 205.027Z" fill="#7F4F32"/>
<path fill-rule="evenodd" clip-rule="evenodd" d="M208.449 203.316C208.639 203.316 208.83 203.316 209.02 203.316C209.269 203.279 209.46 203.374 209.59 203.602C205.514 211.141 203.423 219.22 203.316 227.84C202.763 219.213 204.474 211.038 208.449 203.316Z" fill="#805032"/>
<path fill-rule="evenodd" clip-rule="evenodd" d="M185.067 205.598C185.256 205.598 185.447 205.598 185.637 205.598C186.17 206.207 186.36 206.967 186.207 207.879C185.729 208.074 185.539 208.454 185.637 209.02C185.089 208.013 184.898 206.872 185.067 205.598Z" fill="#9E5C31"/>
<path fill-rule="evenodd" clip-rule="evenodd" d="M186.207 207.879C186.62 212.829 186.905 217.772 187.063 222.707C186.118 218.192 185.643 213.63 185.637 209.02C185.539 208.454 185.729 208.074 186.207 207.879Z" fill="#734A32"/>
</svg>
