<svg width="60" height="60" viewBox="0 0 60 60" fill="none" xmlns="http://www.w3.org/2000/svg">
<path d="M29.9491 30.955C25.9125 30.955 22.6273 27.6698 22.6273 23.6333C22.6273 19.5968 25.9125 16.3115 29.9491 16.3115C33.9856 16.3115 37.2708 19.5968 37.2708 23.6333C37.2708 27.6698 33.9856 30.955 29.9491 30.955ZM29.9491 18.2215C26.9694 18.2215 24.5373 20.6536 24.5373 23.6333C24.5373 26.6129 26.9694 29.045 29.9491 29.045C32.9287 29.045 35.3608 26.6129 35.3608 23.6333C35.3608 20.6536 32.9287 18.2215 29.9491 18.2215Z" fill="black"/>
<path d="M40.8873 43.6884C40.3652 43.6884 39.9323 43.2555 39.9323 42.7334C39.9323 38.3404 35.4501 34.775 29.9492 34.775C24.4484 34.775 19.9662 38.3404 19.9662 42.7334C19.9662 43.2555 19.5333 43.6884 19.0112 43.6884C18.4892 43.6884 18.0562 43.2555 18.0562 42.7334C18.0562 37.2962 23.3915 32.865 29.9492 32.865C36.507 32.865 41.8423 37.2962 41.8423 42.7334C41.8423 43.2555 41.4093 43.6884 40.8873 43.6884Z" fill="black"/>
<circle cx="30" cy="30" r="29.5" stroke="black"/>
</svg>
